<svg width="74" height="65" viewBox="0 0 94 85" fill="none" xmlns="http://www.w3.org/2000/svg">
<g clip-path="url(#clip0_104_16)" filter="url(#filter0_f_104_16)">
<path d="M7.37597 82.1399H68.4575C70.9528 82.1399 72.9829 80.3066 72.9829 78.0532V60.4732C72.9829 59.5532 72.1561 58.8066 71.1373 58.8066C70.1185 58.8066 69.2917 59.5532 69.2917 60.4732V78.0532C69.2917 78.4666 68.9152 78.8066 68.4575 78.8066H7.37597C6.91826 78.8066 6.54176 78.4666 6.54176 78.0532V9.55989C6.54176 9.14656 6.91826 8.80656 7.37597 8.80656H14.2637C15.0278 10.7432 17.0579 12.1399 19.4609 12.1399H56.3726C58.7756 12.1399 60.8057 10.7432 61.5698 8.80656H68.4575C68.9152 8.80656 69.2917 9.14656 69.2917 9.55989V22.3566C69.2917 23.2766 70.1185 24.0232 71.1373 24.0232C72.1561 24.0232 72.9829 23.2766 72.9829 22.3566V9.55989C72.9829 7.30656 70.9528 5.47323 68.4575 5.47323H61.5698C60.8057 3.53656 58.7756 2.13989 56.3726 2.13989H19.4609C17.0579 2.13989 15.0278 3.53656 14.2637 5.47323H7.37597C4.88073 5.47323 2.85059 7.30656 2.85059 9.55989V78.0566C2.85059 80.3066 4.88073 82.1399 7.37597 82.1399ZM19.4609 5.47323H56.3726C57.3914 5.47323 58.2182 6.22323 58.2182 7.13989C58.2182 8.05656 57.3914 8.80656 56.3726 8.80656H19.4609C18.4421 8.80656 17.6153 8.05656 17.6153 7.13989C17.6153 6.22323 18.4421 5.47323 19.4609 5.47323Z" fill="#7DE1E7"/>
<path d="M58.2181 27.1399C58.2181 26.2199 57.3913 25.4733 56.3726 25.4733H19.4608C18.4421 25.4733 17.6152 26.2199 17.6152 27.1399C17.6152 28.0599 18.4421 28.8066 19.4608 28.8066H56.3726C57.3913 28.8066 58.2181 28.0599 58.2181 27.1399Z" fill="#7DE1E7"/>
<path d="M48.2003 43.8066C48.2003 42.8866 47.3735 42.1399 46.3547 42.1399H19.4608C18.4421 42.1399 17.6152 42.8866 17.6152 43.8066C17.6152 44.7266 18.4421 45.4732 19.4608 45.4732H46.3547C47.3772 45.4732 48.2003 44.7266 48.2003 43.8066Z" fill="#7DE1E7"/>
<path d="M19.4608 58.8065C18.4421 58.8065 17.6152 59.5532 17.6152 60.4732C17.6152 61.3932 18.4421 62.1399 19.4608 62.1399H37.9167C38.9355 62.1399 39.7623 61.3932 39.7623 60.4732C39.7623 59.5532 38.9355 58.8065 37.9167 58.8065H19.4608Z" fill="#7DE1E7"/>
<path d="M52.6814 60.4733C52.8438 60.4733 53.0099 60.4533 53.1724 60.4133L61.7285 58.2833C62.0349 58.2066 62.3191 58.0599 62.5442 57.8533L89.6153 33.4033C92.0404 31.2099 92.0404 27.6433 89.6153 25.4499C87.264 23.3266 83.1595 23.3266 80.8082 25.4499L53.7371 49.8999C53.5119 50.1066 53.3495 50.3566 53.2646 50.6366L50.906 58.3599C50.7288 58.9366 50.9097 59.5566 51.3784 59.9799C51.7254 60.2999 52.1979 60.4733 52.6814 60.4733ZM56.69 51.9466L83.4178 27.8099C84.3775 26.9433 86.0459 26.9433 87.0057 27.8099C87.9949 28.7033 87.9949 30.1566 87.0057 31.0499L60.2779 55.1866L55.328 56.4199L56.69 51.9466Z" fill="#7DE1E7"/>
</g>
<defs>
<filter id="filter0_f_104_16" x="0.850586" y="0.139893" width="92.5881" height="84" filterUnits="userSpaceOnUse" color-interpolation-filters="sRGB">
<feFlood flood-opacity="0" result="BackgroundImageFix"/>
<feBlend mode="normal" in="SourceGraphic" in2="BackgroundImageFix" result="shape"/>
<feGaussianBlur stdDeviation="1" result="effect1_foregroundBlur_104_16"/>
</filter>
<clipPath id="clip0_104_16">
<rect width="88.5882" height="80" fill="white" transform="translate(2.85059 2.13989)"/>
</clipPath>
</defs>
</svg>
