<svg width="83" height="81" viewBox="0 0 83 81" fill="none" xmlns="http://www.w3.org/2000/svg">
<g clip-path="url(#clip0_305_194)">
<path d="M4.63137 80.8909H61.568C63.8939 80.8909 65.7862 79.0575 65.7862 76.8042V59.2242C65.7862 58.3042 65.0155 57.5575 64.0659 57.5575C63.1163 57.5575 62.3456 58.3042 62.3456 59.2242V76.8042C62.3456 77.2175 61.9946 77.5575 61.568 77.5575H4.63137C4.20473 77.5575 3.85378 77.2175 3.85378 76.8042V8.31087C3.85378 7.89754 4.20473 7.55754 4.63137 7.55754H11.0517C11.7639 9.4942 13.6563 10.8909 15.8962 10.8909H50.3031C52.543 10.8909 54.4354 9.4942 55.1476 7.55754H61.568C61.9946 7.55754 62.3456 7.89754 62.3456 8.31087V21.1075C62.3456 22.0275 63.1163 22.7742 64.0659 22.7742C65.0155 22.7742 65.7862 22.0275 65.7862 21.1075V8.31087C65.7862 6.05754 63.8939 4.2242 61.568 4.2242H55.1476C54.4354 2.28754 52.543 0.890869 50.3031 0.890869H15.8962C13.6563 0.890869 11.7639 2.28754 11.0517 4.2242H4.63137C2.30547 4.2242 0.413086 6.05754 0.413086 8.31087V76.8075C0.413086 79.0575 2.30547 80.8909 4.63137 80.8909ZM15.8962 4.2242H50.3031C51.2528 4.2242 52.0235 4.9742 52.0235 5.89087C52.0235 6.80754 51.2528 7.55754 50.3031 7.55754H15.8962C14.9466 7.55754 14.1759 6.80754 14.1759 5.89087C14.1759 4.9742 14.9466 4.2242 15.8962 4.2242Z" fill="#7DE1E7"/>
<path d="M52.0234 25.8909C52.0234 24.9709 51.2527 24.2242 50.3031 24.2242H15.8961C14.9465 24.2242 14.1758 24.9709 14.1758 25.8909C14.1758 26.8109 14.9465 27.5576 15.8961 27.5576H50.3031C51.2527 27.5576 52.0234 26.8109 52.0234 25.8909Z" fill="#7DE1E7"/>
<path d="M42.6854 42.5575C42.6854 41.6375 41.9146 40.8909 40.965 40.8909H15.8961C14.9465 40.8909 14.1758 41.6375 14.1758 42.5575C14.1758 43.4775 14.9465 44.2242 15.8961 44.2242H40.965C41.9181 44.2242 42.6854 43.4775 42.6854 42.5575Z" fill="#7DE1E7"/>
<path d="M15.8961 57.5575C14.9465 57.5575 14.1758 58.3042 14.1758 59.2242C14.1758 60.1442 14.9465 60.8908 15.8961 60.8908H33.0996C34.0492 60.8908 34.8199 60.1442 34.8199 59.2242C34.8199 58.3042 34.0492 57.5575 33.0996 57.5575H15.8961Z" fill="#7DE1E7"/>
<path d="M46.8623 59.2242C47.0137 59.2242 47.1685 59.2042 47.3199 59.1642L55.2955 57.0342C55.581 56.9576 55.846 56.8109 56.0558 56.6042L81.2899 32.1542C83.5504 29.9609 83.5504 26.3942 81.2899 24.2009C79.0982 22.0776 75.2721 22.0776 73.0804 24.2009L47.8464 48.6509C47.6365 48.8576 47.4851 49.1076 47.4059 49.3876L45.2073 57.1109C45.0422 57.6876 45.2108 58.3076 45.6478 58.7309C45.9712 59.0509 46.4116 59.2242 46.8623 59.2242ZM50.5989 50.6976L75.513 26.5609C76.4075 25.6942 77.9627 25.6942 78.8573 26.5609C79.7794 27.4542 79.7794 28.9076 78.8573 29.8009L53.9433 53.9376L49.3293 55.1709L50.5989 50.6976Z" fill="#7DE1E7"/>
</g>
<defs>
<clipPath id="clip0_305_194">
<rect width="82.5766" height="80" fill="white" transform="translate(0.413086 0.890869)"/>
</clipPath>
</defs>
</svg>
