<svg width="100" height="101" viewBox="0 0 120 121" fill="none" xmlns="http://www.w3.org/2000/svg">
<g filter="url(#filter0_f_111_189)">
<path d="M10.5348 20.5709C9.02256 20.5709 7.70245 21.3861 6.85016 22.497C5.99785 23.6079 5.53345 25.03 5.53345 26.5677V71.6367C5.53345 73.1744 5.99785 74.6 6.85016 75.7108C7.70245 76.8217 9.02256 77.6336 10.5348 77.6336H42.2804L41.3015 84.4967H32.4741C30.0202 84.4967 27.733 85.7848 26.4697 87.8987L25.0737 90.2303C23.7419 92.4588 25.4457 95.4686 28.0311 95.4686H75.4116C77.9969 95.4686 79.687 92.4588 78.3552 90.2303L76.9627 87.8987C75.6993 85.7848 73.4225 84.4967 70.9686 84.4967H62.1308L61.1588 77.6336H77.6003C78.5804 77.6374 79.3759 76.838 79.372 75.8529C79.3681 74.8732 78.575 74.0822 77.6003 74.0859H10.5348C10.2508 74.0859 9.96884 73.9521 9.64899 73.5349C9.01153 72.4422 9.06822 71.6566 9.06303 70.4308H77.6003C78.575 70.4347 79.3682 69.6436 79.372 68.6639C79.3759 67.6789 78.5804 66.8794 77.6003 66.8833H9.06303V26.5676C9.06208 25.1719 9.89391 24.1495 10.5348 24.1182H92.894C93.178 24.1182 93.4738 24.2384 93.7937 24.6552C94.1135 25.0725 94.3796 25.7639 94.3796 26.5676V42.057C94.3833 43.0326 95.1703 43.822 96.141 43.8238C97.1156 43.8277 97.9089 43.0366 97.9127 42.057V26.5676C97.9127 25.0299 97.4483 23.6077 96.596 22.4968C95.7437 21.386 94.4063 20.5706 92.894 20.5706L10.5348 20.5709ZM20.0964 26.9072C19.3324 27.5126 19.1998 28.6252 19.8 29.3947C20.4074 30.1724 20.7617 31.139 20.7617 32.2113C20.7616 34.7552 18.7462 36.781 16.2153 36.781C15.1669 36.781 14.2215 36.4301 13.4543 35.8386C12.6815 35.2419 11.5734 35.3874 10.9795 36.1644C10.3831 36.9418 10.5283 38.0582 11.3035 38.6553C12.6627 39.7033 14.3765 40.3288 16.2153 40.3288C20.6537 40.3288 24.2912 36.6726 24.2913 32.2115C24.2913 30.331 23.6508 28.5866 22.5747 27.2087C21.4179 26.2618 20.7898 26.4222 20.0964 26.9069L20.0964 26.9072ZM29.9475 39.019L28.3689 37.4358C28.2648 37.3311 28.3128 37.33 28.3447 37.2518C28.3767 37.1742 28.3394 37.162 28.4861 37.162H30.73C32.3864 37.162 33.7632 35.7742 33.7632 34.1099V30.3267C33.7632 28.6624 32.386 27.2744 30.73 27.2744H28.4861C27.5168 27.2782 26.732 28.067 26.7282 29.0413C26.7247 30.0209 27.5114 30.8182 28.4861 30.8221H30.2336V33.6109H28.4861C26.9158 33.611 25.5967 34.6331 25.0737 35.9044C24.5507 37.1758 24.7737 38.8352 25.8837 39.9508L27.1074 41.1808L25.1392 43.159L23.9156 41.9256C22.8055 40.8099 21.1545 40.5892 19.8896 41.1149C18.6248 41.6406 17.6113 42.9664 17.6113 44.5447V46.2873H14.8365V44.5447C14.8401 43.5582 14.0428 42.7582 13.0614 42.764C12.0867 42.7679 11.2997 43.565 11.3035 44.5447V46.7863C11.3035 48.4505 12.6844 49.835 14.3402 49.835H18.1041C19.7595 49.835 21.1408 48.4503 21.1408 46.7863V44.5447C21.1408 44.3974 21.1668 44.4209 21.2442 44.3885C21.3217 44.3566 21.309 44.3215 21.4131 44.4309L22.9883 46.0177C24.1596 47.1951 26.1188 47.1951 27.29 46.0177L29.9613 43.3466C31.1323 42.1696 31.1321 40.2002 29.9613 39.023H29.9542L29.9475 39.019ZM49.8393 28.0853C48.1829 28.0853 46.8027 29.4725 46.8027 31.1374V33.3754C46.8027 33.5237 46.7764 33.503 46.6993 33.5349C46.6222 33.5667 46.6208 33.5949 46.5166 33.4924L44.9414 31.9075C43.7701 30.7301 41.8281 30.7301 40.6569 31.9075L37.9856 34.5786C36.8145 35.7559 36.8144 37.7216 37.9856 38.8988L39.5608 40.4854C39.665 40.5901 39.6307 40.5912 39.5987 40.6694C39.5667 40.7464 39.6047 40.773 39.4574 40.773H37.2169C35.5605 40.773 34.1803 42.1568 34.1803 43.8217V47.6083C34.1803 49.2732 35.5605 50.657 37.2169 50.657H39.4574C39.6048 50.657 39.5668 50.6729 39.5987 50.7511C39.6307 50.8287 39.665 50.8303 39.5609 50.935L37.9857 52.5182C36.8145 53.6955 36.8144 55.6612 37.9857 56.8384L40.657 59.5095C41.8282 60.6869 43.7702 60.6869 44.9414 59.5095L46.5166 57.9263C46.6208 57.8216 46.6222 57.8562 46.6993 57.8838C46.7764 57.9157 46.8027 57.889 46.8027 58.04V60.278C46.8027 61.9429 48.183 63.3301 49.8394 63.3301H53.6034C55.2598 63.3301 56.64 61.9429 56.64 60.278V58.04C56.64 57.8917 56.6665 57.9162 56.7434 57.8838C56.8205 57.8519 56.8081 57.8168 56.9123 57.9263L58.491 59.5095C59.6622 60.6869 61.618 60.6869 62.7892 59.5095L65.4467 56.8384C66.6178 55.6612 66.6178 53.6954 65.4467 52.5182L63.8715 50.935C63.7674 50.8303 63.812 50.8292 63.844 50.7511C63.8758 50.674 63.8414 50.657 63.9888 50.657H66.2293C67.8857 50.657 69.2625 49.2732 69.2625 47.6083V43.8217C69.2625 42.1568 67.8858 40.773 66.2293 40.773H63.9888C63.8414 40.773 63.8759 40.7464 63.844 40.6694C63.8123 40.5918 63.7673 40.5901 63.8715 40.4854L65.4467 38.8988C66.6178 37.7216 66.6179 35.7558 65.4467 34.5786L62.7892 31.9075C61.618 30.7301 59.6622 30.7301 58.491 31.9075L56.9123 33.4907C56.8081 33.5954 56.8205 33.5646 56.7434 33.5332C56.6663 33.5013 56.64 33.5173 56.64 33.3738V31.1358C56.64 29.4708 55.2599 28.0836 53.6033 28.0836L49.8393 28.0853ZM50.3357 31.6363H53.1104V33.3754C53.1104 34.9532 54.1242 36.2822 55.3888 36.8087C56.6533 37.3349 58.3046 37.1244 59.4147 36.0084L60.6521 34.7784L62.6065 36.7428L61.3829 37.9866C60.2729 39.1023 60.0491 40.7482 60.5729 42.0192C61.0967 43.2902 62.4189 44.3091 63.9887 44.3091H65.7328V47.1118H63.9887C62.4189 47.1119 61.0967 48.1343 60.5729 49.4053C60.0491 50.6763 60.2729 52.3326 61.3829 53.4483L62.6065 54.6816L60.6383 56.6564L59.4147 55.4266C58.3047 54.311 56.6533 54.0894 55.3888 54.6158C54.1242 55.142 53.1104 56.4679 53.1104 58.0457V59.7986H50.3357V58.0457C50.3357 56.4679 49.3184 55.1422 48.0539 54.6158C46.7893 54.0896 45.138 54.3108 44.0279 55.4266L42.8043 56.6564L40.8362 54.6816L42.0632 53.4483C43.1732 52.3326 43.3798 50.6763 42.856 49.4053C42.3322 48.1343 41.0272 47.1119 39.4574 47.1118H37.7099V44.3091H39.4574C41.0273 44.3091 42.3322 43.2902 42.856 42.0192C43.3798 40.7482 43.1733 39.1023 42.0632 37.9866L40.8258 36.7428L42.8043 34.7784L44.0279 36.0084C45.138 37.1241 46.7893 37.3352 48.0539 36.8087C49.3184 36.2825 50.3357 34.9532 50.3357 33.3754V31.6363ZM51.7144 37.5916C47.2759 37.5916 43.6522 41.2512 43.6522 45.7123C43.6523 50.1734 47.276 53.8294 51.7144 53.8294C56.1529 53.8294 59.7938 50.1734 59.7939 45.7123C59.7939 41.2512 56.153 37.5916 51.7144 37.5916ZM51.7144 41.1427C54.2454 41.1427 56.2609 43.1684 56.2608 45.7123C56.2608 48.2562 54.2454 50.2818 51.7144 50.2818C49.1835 50.2818 47.1681 48.2562 47.168 45.7123C47.168 43.1684 49.1834 41.1427 51.7144 41.1427ZM88.1925 47.3752C85.2894 47.3752 82.905 49.7855 82.905 52.7035V86.3051C82.9041 86.337 82.9041 86.372 82.905 86.4055V94.3945C82.905 97.3124 85.2894 99.7089 88.1925 99.7089H109.377C112.28 99.7089 114.664 97.3124 114.664 94.3945V52.7035C114.664 49.7855 112.28 47.3752 109.377 47.3752H88.1925ZM88.1925 50.9227H109.377C110.373 50.9227 111.135 51.7027 111.135 52.7035V84.6249H86.4208V52.7035C86.4208 51.7027 87.1969 50.9227 88.1925 50.9227ZM97.9506 63.7931L96.1927 70.8917C95.9577 71.8384 96.5275 72.7981 97.468 73.0397C98.4109 73.2757 99.3663 72.7012 99.6051 71.7545L101.377 64.6592C101.611 63.7083 101.034 62.7466 100.088 62.5114C99.0153 62.2748 98.3072 62.7339 97.9506 63.7931ZM91.3567 64.7494L89.5851 66.5162C88.8915 67.2097 88.8915 68.3379 89.5851 69.0315L91.3567 70.7983C92.0451 71.4862 93.157 71.4862 93.8454 70.7983C94.5298 70.1065 94.5298 68.9888 93.8454 68.2969L93.3249 67.7739L93.8454 67.251C94.5298 66.5591 94.5298 65.4416 93.8454 64.7497C92.8376 63.9875 92.0228 64.1282 91.3567 64.7497V64.7494ZM103.707 64.7494C103.022 65.4412 103.022 66.5588 103.707 67.2507L104.231 67.7736L103.707 68.2965C103.022 68.9884 103.022 70.106 103.707 70.7978C104.397 71.495 105.519 71.495 106.209 70.7978L107.967 69.031C108.661 68.3374 108.661 67.2092 107.967 66.5157L106.209 64.7489C105.199 63.9827 104.376 64.1308 103.707 64.7489V64.7494ZM45.841 77.6336H57.5913L58.5668 84.4967H44.8621L45.841 77.6336ZM32.4741 88.0442H70.9686C72.1893 88.0442 73.3125 88.6851 73.9398 89.7348L75.2427 91.9209H28.2L29.5029 89.7348C30.1302 88.6851 31.2534 88.0442 32.4741 88.0442ZM86.4208 88.1754H111.135V94.3941C111.135 95.3948 110.373 96.161 109.377 96.161H88.1925C87.1969 96.161 86.4208 95.3948 86.4208 94.3941V88.1754ZM98.7744 89.9528C97.8024 89.9548 97.0149 90.746 97.013 91.723C97.0091 92.704 97.7984 93.502 98.7744 93.5038C99.7544 93.5077 100.55 92.7081 100.546 91.723C100.544 90.742 99.7504 89.949 98.7744 89.9528Z" fill="#7DE1E7"/>
</g>
<defs>
<filter id="filter0_f_111_189" x="-1.59668" y="-1.86011" width="123.391" height="124" filterUnits="userSpaceOnUse" color-interpolation-filters="sRGB">
<feFlood flood-opacity="0" result="BackgroundImageFix"/>
<feBlend mode="normal" in="SourceGraphic" in2="BackgroundImageFix" result="shape"/>
<feGaussianBlur stdDeviation="1" result="effect1_foregroundBlur_111_189"/>
</filter>
</defs>
</svg>
