<svg width="102" height="80" viewBox="0 0 102 80" fill="none" xmlns="http://www.w3.org/2000/svg">
<path d="M4.86513 0.696629C3.45547 0.696629 2.22494 1.51187 1.43048 2.62275C0.636015 3.73363 0.203125 5.15575 0.203125 6.69348V51.7625C0.203125 53.3001 0.636015 54.7257 1.43048 55.8366C2.22494 56.9475 3.45547 57.7593 4.86513 57.7593H34.4564L33.544 64.6225H25.3156C23.0282 64.6225 20.8962 65.9105 19.7186 68.0244L18.4174 70.3561C17.1759 72.5846 18.7642 75.5943 21.1741 75.5943H65.3394C67.7493 75.5943 69.3246 72.5846 68.0832 70.3561L66.7852 68.0244C65.6076 65.9105 63.4852 64.6225 61.1979 64.6225H52.9598L52.0538 57.7593H67.3796C68.2931 57.7632 69.0346 56.9637 69.031 55.9787C69.0274 54.999 68.2881 54.2079 67.3796 54.2117H4.86513C4.60036 54.2117 4.33754 54.0778 4.03939 53.6607C3.44519 52.568 3.49803 51.7823 3.49319 50.5565H67.3796C68.2881 50.5604 69.0275 49.7693 69.031 48.7897C69.0347 47.8046 68.2931 47.0052 67.3796 47.009H3.49319V6.69332C3.4923 5.29761 4.26769 4.27524 4.86513 4.24394H81.6355C81.9002 4.24394 82.1759 4.36413 82.4741 4.78098C82.7722 5.1982 83.0202 5.88969 83.0202 6.69332V22.1827C83.0237 23.1583 83.7573 23.9477 84.6621 23.9496C85.5706 23.9535 86.31 23.1624 86.3135 22.1827V6.69332C86.3135 5.15564 85.8807 3.73347 85.0862 2.62259C84.2917 1.51176 83.0451 0.696304 81.6355 0.696304L4.86513 0.696629ZM13.7779 7.03296C13.0657 7.63834 12.9421 8.7509 13.5016 9.52046C14.0677 10.2982 14.398 11.2647 14.398 12.3371C14.3979 14.8809 12.5193 16.9067 10.1601 16.9067C9.18281 16.9067 8.3016 16.5559 7.58649 15.9643C6.86608 15.3677 5.8332 15.5131 5.27959 16.2902C4.72371 17.0676 4.85906 18.184 5.58161 18.7811C6.84863 19.8291 8.44606 20.4545 10.1601 20.4545C14.2974 20.4545 17.688 16.7983 17.688 12.3372C17.688 10.4567 17.091 8.71239 16.088 7.33449C15.0096 6.38758 14.4242 6.54791 13.7779 7.03264L13.7779 7.03296ZM22.9605 19.1447L21.489 17.5615C21.3919 17.4568 21.4367 17.4557 21.4664 17.3776C21.4962 17.3 21.4615 17.2877 21.5982 17.2877H23.6898C25.2339 17.2877 26.5172 15.9 26.5172 14.2356V10.4525C26.5172 8.78818 25.2334 7.40018 23.6898 7.40018H21.5982C20.6947 7.4039 19.9631 8.19279 19.9596 9.16702C19.9563 10.1466 20.6897 10.944 21.5982 10.9478H23.2272V13.7367H21.5982C20.1345 13.7367 18.9049 14.7588 18.4174 16.0302C17.9299 17.3016 18.1378 18.9609 19.1724 20.0766L20.313 21.3065L18.4784 23.2847L17.3379 22.0514C16.3031 20.9357 14.7642 20.715 13.5851 21.2407C12.4061 21.7663 11.4614 23.0921 11.4613 24.6704V26.4131H8.8749V24.6704C8.87819 23.6839 8.13503 22.884 7.22023 22.8898C6.31169 22.8937 5.57806 23.6907 5.58161 24.6704V26.912C5.58161 28.5762 6.86881 29.9607 8.41223 29.9607H11.9208C13.4638 29.9607 14.7514 28.5761 14.7514 26.912V24.6704C14.7514 24.5232 14.7756 24.5466 14.8478 24.5142C14.92 24.4823 14.9082 24.4472 15.0052 24.5567L16.4735 26.1435C17.5653 27.3209 19.3916 27.3209 20.4833 26.1435L22.9733 23.4724C24.0648 22.2954 24.0647 20.3259 22.9733 19.1488H22.9667L22.9605 19.1447ZM41.5024 8.21102C39.9584 8.21102 38.6718 9.59822 38.6718 11.2631V13.5012C38.6718 13.6495 38.6473 13.6287 38.5755 13.6606C38.5036 13.6925 38.5023 13.7207 38.4052 13.6181L36.9368 12.0333C35.8451 10.8559 34.0349 10.8559 32.9431 12.0333L30.4531 14.7044C29.3615 15.8816 29.3614 17.8473 30.4531 19.0245L31.9214 20.6112C32.0186 20.7159 31.9865 20.717 31.9567 20.7951C31.9269 20.8722 31.9623 20.8988 31.825 20.8988H29.7366C28.1926 20.8988 26.906 22.2826 26.906 23.9475V27.734C26.906 29.3989 28.1926 30.7827 29.7366 30.7827H31.825C31.9624 30.7827 31.927 30.7987 31.9568 30.8768C31.9865 30.9544 32.0186 30.956 31.9215 31.0607L30.4531 32.644C29.3615 33.8212 29.3614 35.7869 30.4531 36.9642L32.9432 39.6353C34.0349 40.8126 35.8451 40.8126 36.9369 39.6353L38.4052 38.052C38.5023 37.9473 38.5036 37.9819 38.5755 38.0095C38.6474 38.0414 38.6719 38.0148 38.6719 38.1657V40.4038C38.6719 42.0686 39.9585 43.4559 41.5025 43.4559H45.011C46.5551 43.4559 47.8417 42.0686 47.8417 40.4038V38.1657C47.8417 38.0175 47.8663 38.042 47.938 38.0095C48.0099 37.9777 47.9984 37.9426 48.0955 38.052L49.567 39.6353C50.6587 40.8126 52.4818 40.8126 53.5735 39.6353L56.0507 36.9642C57.1423 35.7869 57.1423 33.8212 56.0507 32.644L54.5824 31.0607C54.4853 30.956 54.527 30.9549 54.5568 30.8768C54.5864 30.7997 54.5543 30.7827 54.6917 30.7827H56.7802C58.3242 30.7827 59.6076 29.3989 59.6076 27.734V23.9475C59.6076 22.2826 58.3243 20.8988 56.7802 20.8988H54.6917C54.5543 20.8988 54.5865 20.8722 54.5567 20.7951C54.5272 20.7175 54.4853 20.7159 54.5824 20.6112L56.0507 19.0245C57.1423 17.8473 57.1424 15.8815 56.0507 14.7044L53.5735 12.0333C52.4818 10.8559 50.6587 10.8559 49.567 12.0333L48.0954 13.6165C47.9983 13.7212 48.0099 13.6903 47.938 13.659C47.8661 13.6271 47.8416 13.643 47.8416 13.4995V11.2615C47.8416 9.5966 46.5552 8.2094 45.011 8.2094L41.5024 8.21102ZM41.9651 11.7621H44.5515V13.5012C44.5515 15.079 45.4966 16.4079 46.6753 16.9344C47.854 17.4606 49.3933 17.2501 50.428 16.1342L51.5815 14.9042L53.4032 16.8686L52.2626 18.1123C51.228 19.228 51.0193 20.8739 51.5076 22.1449C51.9959 23.416 53.2283 24.4349 54.6916 24.4349H56.3174V27.2375H54.6916C53.2284 27.2376 51.9958 28.2601 51.5076 29.531C51.0194 30.8021 51.228 32.4584 52.2626 33.574L53.4032 34.8074L51.5686 36.7822L50.428 35.5524C49.3933 34.4367 47.854 34.2151 46.6753 34.7415C45.4966 35.2677 44.5516 36.5936 44.5515 38.1714V39.9243H41.9651V38.1714C41.9651 36.5936 41.0169 35.268 39.8381 34.7415C38.6594 34.2154 37.1201 34.4366 36.0854 35.5524L34.9448 36.7822L33.1102 34.8074L34.254 33.574C35.2887 32.4584 35.4813 30.802 34.993 29.531C34.5047 28.2601 33.2883 27.2376 31.825 27.2375H30.1961V24.4349H31.825C33.2883 24.4349 34.5047 23.416 34.993 22.1449C35.4813 20.8739 35.2887 19.228 34.254 18.1123L33.1006 16.8686L34.9448 14.9042L36.0854 16.1342C37.1201 17.2498 38.6594 17.4609 39.8381 16.9344C41.0169 16.4083 41.9651 15.079 41.9651 13.5012V11.7621ZM43.2503 17.7174C39.113 17.7174 35.7351 21.3769 35.7352 25.8381C35.7353 30.2992 39.113 33.9552 43.2503 33.9552C47.3876 33.9552 50.7814 30.2992 50.7815 25.8381C50.7815 21.3769 47.3876 17.7174 43.2503 17.7174ZM43.2503 21.2684C45.6095 21.2684 47.4882 23.2941 47.4882 25.8381C47.4881 28.3819 45.6095 30.4076 43.2503 30.4076C40.8911 30.4076 39.0125 28.3819 39.0124 25.8381C39.0124 23.2941 40.8911 21.2684 43.2503 21.2684ZM77.253 27.5009C74.5469 27.5009 72.3243 29.9112 72.3243 32.8292V66.4308C72.3234 66.4627 72.3234 66.4977 72.3243 66.5312V74.5202C72.3243 77.4382 74.5469 79.8347 77.253 79.8347H96.9998C99.7059 79.8347 101.928 77.4382 101.928 74.5202V32.8292C101.928 29.9112 99.7059 27.5009 96.9998 27.5009H77.253ZM77.253 31.0484H96.9998C97.9279 31.0484 98.6384 31.8285 98.6384 32.8292V64.7506H75.6015V32.8292C75.6015 31.8285 76.3249 31.0484 77.253 31.0484ZM86.3489 43.9188L84.7103 51.0175C84.4912 51.9641 85.0224 52.9239 85.8991 53.1655C86.778 53.4015 87.6685 52.827 87.8911 51.8802L89.5426 44.785C89.7608 43.834 89.2228 42.8724 88.3409 42.6371C87.3414 42.4006 86.6813 42.8597 86.3489 43.9188ZM80.2025 44.8751L78.551 46.642C77.9046 47.3355 77.9046 48.4637 78.551 49.1572L80.2025 50.924C80.8441 51.612 81.8806 51.612 82.5222 50.924C83.1602 50.2322 83.1602 49.1145 82.5222 48.4226L82.0371 47.8997L82.5222 47.3767C83.1602 46.6849 83.1602 45.5673 82.5222 44.8755C81.5829 44.1132 80.8234 44.254 80.2025 44.8755V44.8751ZM91.7145 44.8751C91.0765 45.567 91.0765 46.6846 91.7145 47.3764L92.2029 47.8993L91.7145 48.4223C91.0765 49.1141 91.0765 50.2317 91.7145 50.9236C92.3576 51.6207 93.404 51.6207 94.0471 50.9236L95.6857 49.1567C96.3322 48.4632 96.3322 47.335 95.6857 46.6415L94.0471 44.8746C93.105 44.1085 92.3382 44.2565 91.7145 44.8746V44.8751ZM37.7754 57.7593H48.7284L49.6377 64.6225H36.8629L37.7754 57.7593ZM25.3156 68.1699H61.1979C62.3357 68.1699 63.3827 68.8108 63.9674 69.8605L65.1819 72.0467H21.3315L22.546 69.8605C23.1307 68.8109 24.1777 68.1699 25.3156 68.1699ZM75.6015 68.3012H98.6384V74.5199C98.6384 75.5206 97.9279 76.2867 96.9998 76.2867H77.253C76.3249 76.2867 75.6015 75.5206 75.6015 74.5199V68.3012ZM87.1168 70.0785C86.2108 70.0805 85.4767 70.8718 85.4749 71.8488C85.4713 72.8297 86.207 73.6277 87.1168 73.6296C88.0303 73.6335 88.7718 72.8338 88.7682 71.8488C88.7664 70.8678 88.0266 70.0747 87.1168 70.0785Z" fill="#7DE1E7"/>
</svg>
