<svg width="87" height="96" viewBox="0 0 87 96" fill="none" xmlns="http://www.w3.org/2000/svg">
<g clip-path="url(#clip0_305_185)">
<path d="M54.6876 90.1037C53.1937 88.8934 53.0333 87.0751 53.0333 87.0751L52.4726 83.1278H34.606L34.0436 87.0722C34.0436 87.0722 33.8875 88.8924 32.3927 90.1027C30.8988 91.313 29.7197 92.3523 30.8988 92.529C32.0347 92.6981 42.7501 92.5442 43.5402 92.529C44.332 92.5442 55.0447 92.6981 56.1798 92.529C57.358 92.3542 56.1781 91.3168 54.6876 90.1037Z" fill="#7DE1E7"/>
<path d="M23.4137 58.5722C28.187 58.5313 28.7813 57.264 30.3373 51.9858C33.207 43.6562 46.1296 54.167 38.1209 57.815C30.1122 61.4649 18.6404 58.613 23.4137 58.5722Z" fill="#7DE1E7"/>
<path d="M72.3576 3.67929C70.039 1.62349 66.2033 2.63619 63.7856 5.94029L39.2981 44.2595C36.8804 47.5626 36.8925 46.9318 39.2084 48.9857C41.5243 51.0415 40.9663 51.1888 43.384 47.8856L72.1721 13.3845C74.5898 10.0785 74.6743 5.73414 72.3576 3.67929ZM66.0601 8.26589C66.0601 8.26589 65.7013 7.80704 64.5084 6.75634C66.2973 3.53869 69.8131 4.12864 69.8131 4.12864C66.4802 6.29654 66.0601 8.26589 66.0601 8.26589Z" fill="#7DE1E7"/>
<path d="M83.2169 16.6278H72.449L67.6921 22.3278H81.4927V67.9278H5.58919V22.3278H49.7426L53.3886 16.6278H3.86325C1.9579 16.6278 0.413086 18.3292 0.413086 20.4278V75.5278C0.413086 77.6263 1.9579 79.3278 3.86325 79.3278H83.2169C85.1223 79.3278 86.6671 77.6263 86.6671 75.5278V20.4278C86.6671 18.3292 85.1223 16.6278 83.2169 16.6278Z" fill="#7DE1E7"/>
</g>
<defs>
<clipPath id="clip0_305_185">
<rect width="86.254" height="95" fill="white" transform="translate(0.413086 0.111084)"/>
</clipPath>
</defs>
</svg>
