<svg width="78" height="76" viewBox="0 0 98 96" fill="none" xmlns="http://www.w3.org/2000/svg">
<g clip-path="url(#clip0_106_75)" filter="url(#filter0_f_106_75)">
<path d="M61.0763 90.6325C59.4736 89.4222 59.3015 87.6039 59.3015 87.6039L58.7 83.6566H39.5327L38.9294 87.601C38.9294 87.601 38.7619 89.4212 37.1583 90.6315C35.5556 91.8418 34.2907 92.8811 35.5556 93.0578C36.7743 93.2269 48.2697 93.073 49.1173 93.0578C49.9667 93.073 61.4594 93.2269 62.6771 93.0578C63.9411 92.883 62.6752 91.8456 61.0763 90.6325Z" fill="#7DE1E7"/>
<path d="M27.5255 59.101C32.6463 59.0601 33.2838 57.7928 34.9531 52.5146C38.0317 44.185 51.8951 54.6958 43.3033 58.3438C34.7116 61.9937 22.4047 59.1418 27.5255 59.101Z" fill="#7DE1E7"/>
<path d="M80.0325 4.2081C77.5452 2.1523 73.4303 3.165 70.8366 6.4691L44.5664 44.7883C41.9726 48.0914 41.9856 47.4606 44.4701 49.5145C46.9546 51.5703 46.3559 51.7176 48.9497 48.4145L79.8336 13.9133C82.4273 10.6073 82.518 6.26295 80.0325 4.2081ZM73.2767 8.7947C73.2767 8.7947 72.8917 8.33585 71.612 7.28515C73.5311 4.0675 77.3028 4.65745 77.3028 4.65745C73.7273 6.82535 73.2767 8.7947 73.2767 8.7947Z" fill="#7DE1E7"/>
<path d="M91.6825 17.1566H80.1307L75.0275 22.8566H89.8328V68.4566H8.40351V22.8566H55.7713L59.6827 17.1566H6.55192C4.50786 17.1566 2.85059 18.8581 2.85059 20.9566V76.0566C2.85059 78.1552 4.50786 79.8566 6.55192 79.8566H91.6825C93.7266 79.8566 95.3839 78.1552 95.3839 76.0566V20.9566C95.3839 18.8581 93.7266 17.1566 91.6825 17.1566Z" fill="#7DE1E7"/>
</g>
<defs>
<filter id="filter0_f_106_75" x="0.850586" y="-1.36011" width="96.5333" height="99" filterUnits="userSpaceOnUse" color-interpolation-filters="sRGB">
<feFlood flood-opacity="0" result="BackgroundImageFix"/>
<feBlend mode="normal" in="SourceGraphic" in2="BackgroundImageFix" result="shape"/>
<feGaussianBlur stdDeviation="1" result="effect1_foregroundBlur_106_75"/>
</filter>
<clipPath id="clip0_106_75">
<rect width="92.5333" height="95" fill="white" transform="translate(2.85059 0.639893)"/>
</clipPath>
</defs>
</svg>
