<svg width="90" height="90" viewBox="0 0 120 119" fill="none" xmlns="http://www.w3.org/2000/svg">
<g filter="url(#filter0_f_34_14)">
<path d="M97.1752 59.5345C97.1752 80.0269 80.4514 96.6393 59.8215 96.6393C39.1916 96.6393 22.4678 80.0269 22.4678 59.5345C22.4678 39.0421 39.1916 22.4297 59.8215 22.4297C80.4514 22.4297 97.1752 39.0421 97.1752 59.5345Z" fill="black" fill-opacity="0.97"/>
</g>
<path d="M52.5728 42.7358C46.8003 42.7358 42.103 47.4018 42.103 53.1358V67.5358C42.103 73.2699 46.8003 77.9358 52.5728 77.9358H67.0694C72.8419 77.9358 77.5392 73.2699 77.5392 67.5358V53.1358C77.5392 47.4018 72.8419 42.7358 67.0694 42.7358H52.5728ZM52.5728 44.3358H67.0694C71.9712 44.3358 75.9284 48.2667 75.9284 53.1358V67.5358C75.9284 72.405 71.9712 76.3358 67.0694 76.3358H52.5728C47.6709 76.3358 43.7138 72.405 43.7138 67.5358V53.1358C43.7138 48.2667 47.6709 44.3358 52.5728 44.3358ZM69.4855 49.1358C69.0583 49.1358 68.6486 49.3044 68.3465 49.6045C68.0445 49.9045 67.8748 50.3115 67.8748 50.7358C67.8748 51.1602 68.0445 51.5672 68.3465 51.8672C68.6486 52.1673 69.0583 52.3358 69.4855 52.3358C69.9127 52.3358 70.3224 52.1673 70.6245 51.8672C70.9265 51.5672 71.0962 51.1602 71.0962 50.7358C71.0962 50.3115 70.9265 49.9045 70.6245 49.6045C70.3224 49.3044 69.9127 49.1358 69.4855 49.1358ZM59.8211 51.5358C54.9379 51.5358 50.9621 55.4852 50.9621 60.3358C50.9621 65.1865 54.9379 69.1358 59.8211 69.1358C64.7043 69.1358 68.6801 65.1865 68.6801 60.3358C68.6801 55.4852 64.7043 51.5358 59.8211 51.5358ZM59.8211 53.1358C63.8338 53.1358 67.0694 56.3499 67.0694 60.3358C67.0694 64.3218 63.8338 67.5358 59.8211 67.5358C55.8084 67.5358 52.5728 64.3218 52.5728 60.3358C52.5728 56.3499 55.8084 53.1358 59.8211 53.1358Z" fill="#7DE1E7"/>
<defs>
<filter id="filter0_f_34_14" x="0.467773" y="0.429688" width="118.708" height="118.21" filterUnits="userSpaceOnUse" color-interpolation-filters="sRGB">
<feFlood flood-opacity="0" result="BackgroundImageFix"/>
<feBlend mode="normal" in="SourceGraphic" in2="BackgroundImageFix" result="shape"/>
<feGaussianBlur stdDeviation="11" result="effect1_foregroundBlur_34_14"/>
</filter>
</defs>
</svg>
