<svg width="100" height="80" viewBox="0 0 128 98" fill="none" xmlns="http://www.w3.org/2000/svg">
<g filter="url(#filter0_d_148_194)">
<path d="M82.6213 90.9174C81.0347 90.9174 80.2413 90.18 80.2413 88.7054C80.2413 87.5854 80.8013 86.2134 81.9213 84.5894C83.06 82.9467 84.152 82.1254 85.1973 82.1254C85.5707 82.1254 85.9533 82.2654 86.3453 82.5454C86.756 82.8067 86.9613 83.096 86.9613 83.4134C86.9613 84.2907 86.6627 84.7294 86.0653 84.7294C85.916 84.7294 85.8227 84.6827 85.7853 84.5894C86.0093 84.048 86.1213 83.6187 86.1213 83.3014C86.1213 83.0027 86.0467 82.8534 85.8973 82.8534C85.692 82.8534 85.3187 83.068 84.7773 83.4974C84.3107 83.8707 83.872 84.3 83.4613 84.7854C83.0693 85.2707 82.7147 85.7747 82.3973 86.2974C81.7253 87.436 81.3893 88.388 81.3893 89.1534C81.3893 89.9 81.6787 90.2734 82.2573 90.2734C82.9293 90.2734 83.6667 89.928 84.4693 89.2374C84.7307 88.9947 85.0107 88.724 85.3093 88.4254C85.608 88.108 85.9347 87.7627 86.2893 87.3894C86.98 86.6427 87.344 86.2694 87.3813 86.2694C87.4933 86.2694 87.5493 86.316 87.5493 86.4094C87.5493 86.484 87.5307 86.5587 87.4933 86.6334C85.5333 89.4894 83.9093 90.9174 82.6213 90.9174ZM88.5626 90.6654C88.3946 90.6654 88.2079 90.6187 88.0026 90.5254C87.7973 90.432 87.6946 90.32 87.6946 90.1894C87.6946 89.872 88.0026 88.752 88.6186 86.8294C89.2346 84.888 89.5426 83.432 89.5426 82.4614C89.5426 82.1627 89.4119 81.9947 89.1506 81.9574C88.8893 81.92 88.7586 81.864 88.7586 81.7894C88.7586 81.6214 88.8986 81.5374 89.1786 81.5374C90.4293 81.5374 91.0546 82.0507 91.0546 83.0774C91.0546 83.376 90.7466 84.4774 90.1306 86.3814C91.1386 84.7387 92.2586 83.6094 93.4906 82.9934C93.8079 82.3214 94.2466 81.9854 94.8066 81.9854C95.3479 81.9854 95.6466 82.032 95.7026 82.1254C95.6839 82.1067 95.6466 82.1347 95.5906 82.2094C95.5346 82.284 95.4693 82.368 95.3946 82.4614C95.0959 82.8907 94.8346 83.3107 94.6106 83.7214C94.3866 84.1134 94.2653 84.4214 94.2466 84.6454C94.2466 85.1494 94.4239 85.4574 94.7786 85.5694C94.8159 85.588 94.8533 85.5974 94.8906 85.5974C94.9466 85.5974 94.9746 85.616 94.9746 85.6534C94.9746 85.8027 94.7879 85.8774 94.4146 85.8774C94.0599 85.8774 93.7519 85.7374 93.4906 85.4574C93.3413 85.2894 93.2386 85.112 93.1826 84.9254C93.1266 84.72 93.0986 84.524 93.0986 84.3374C93.0986 84.0387 93.1453 83.768 93.2386 83.5254C92.7719 83.88 92.3519 84.2534 91.9786 84.6454C91.6053 85.0187 91.2599 85.392 90.9426 85.7654C90.3453 86.5307 89.9253 87.212 89.6826 87.8094C89.4586 88.388 89.2999 88.8827 89.2066 89.2934C89.0946 89.7414 89.0013 90.0867 88.9266 90.3294C88.8519 90.5534 88.7306 90.6654 88.5626 90.6654ZM96.676 90.9174C95.0894 90.9174 94.296 90.18 94.296 88.7054C94.296 87.5667 94.856 86.1854 95.976 84.5614C97.1334 82.9374 98.2347 82.1254 99.28 82.1254C99.728 82.1254 100.12 82.2747 100.456 82.5734C100.811 82.8534 100.988 83.1987 100.988 83.6094C100.988 84.3 100.549 85 99.672 85.7094C98.8134 86.4 97.964 86.7454 97.124 86.7454C96.956 86.7454 96.872 86.708 96.872 86.6334L96.956 86.4934C99.1027 85.8214 100.176 84.72 100.176 83.1894C100.176 82.9654 100.101 82.8534 99.952 82.8534C99.7467 82.8534 99.3734 83.068 98.832 83.4974C98.3654 83.8707 97.9267 84.3 97.516 84.7854C97.124 85.2707 96.7694 85.7747 96.452 86.2974C95.78 87.436 95.444 88.388 95.444 89.1534C95.444 89.9 95.7334 90.2734 96.312 90.2734C96.984 90.2734 97.7214 89.928 98.524 89.2374C98.7854 88.9947 99.0654 88.724 99.364 88.4254C99.6627 88.108 99.9894 87.7627 100.344 87.3894C101.035 86.6427 101.399 86.2694 101.436 86.2694C101.548 86.2694 101.604 86.316 101.604 86.4094C101.604 86.484 101.585 86.5587 101.548 86.6334C99.588 89.4894 97.964 90.9174 96.676 90.9174ZM102.268 90.8334C101.894 90.8334 101.549 90.6654 101.232 90.3294C100.933 89.9747 100.784 89.5267 100.784 88.9854C100.784 88.444 101.11 87.604 101.764 86.4654C102.417 85.3454 103.22 84.3374 104.172 83.4414C105.105 82.564 105.908 82.1254 106.58 82.1254H106.86C107.55 82.1254 108.138 82.2654 108.624 82.5454C109.109 82.8067 109.352 83.1614 109.352 83.6094C109.352 83.8147 109.268 83.9174 109.1 83.9174C109.044 83.9174 109.016 83.8894 109.016 83.8334C108.717 83.1427 108.26 82.7974 107.644 82.7974C106.58 82.7974 105.366 83.6747 104.004 85.4294C102.641 87.1467 101.96 88.472 101.96 89.4054C101.96 89.76 102.053 89.9374 102.24 89.9374C103.08 89.9374 104.844 88.0427 107.532 84.2534C107.513 84.272 107.522 84.272 107.56 84.2534C107.616 84.216 107.662 84.1974 107.7 84.1974C107.793 84.1974 107.989 84.2907 108.288 84.4774C108.586 84.6454 108.736 84.7947 108.736 84.9254C108.736 84.9254 108.698 84.9907 108.624 85.1214C108.549 85.2334 108.456 85.4107 108.344 85.6534C108.045 86.288 107.812 86.9134 107.644 87.5294C107.494 88.1267 107.42 88.6494 107.42 89.0974C107.42 90.0867 107.662 90.5814 108.148 90.5814L108.428 90.5254L108.484 90.5534C108.484 90.7214 108.25 90.8054 107.784 90.8054C107.336 90.8054 106.962 90.6 106.664 90.1894C106.384 89.76 106.244 89.1907 106.244 88.4814C106.244 87.7907 106.365 87.0254 106.608 86.1854C106.589 86.2414 106.524 86.344 106.412 86.4934C106.3 86.6427 106.122 86.904 105.88 87.2774C104.349 89.648 103.145 90.8334 102.268 90.8334ZM111.367 91.1414C110.545 91.1414 110.135 90.7027 110.135 89.8254C110.135 89.0414 110.396 88.0147 110.919 86.7454C111.124 86.26 111.329 85.7747 111.535 85.2894C111.74 84.804 111.973 84.2534 112.235 83.6374C111.6 83.3947 111.283 83.0307 111.283 82.5454C111.283 82.396 111.32 82.2934 111.395 82.2374C111.675 82.368 112.104 82.4614 112.683 82.5174C113.299 81.136 113.607 80.2587 113.607 79.8854C113.607 79.4747 113.532 79.2694 113.383 79.2694L112.823 79.4094C112.767 79.4094 112.739 79.3814 112.739 79.3254C112.739 79.176 112.851 79.064 113.075 78.9894C113.299 78.896 113.467 78.8494 113.579 78.8494C114.4 78.8494 114.811 79.316 114.811 80.2494C114.811 80.7907 114.643 81.5 114.307 82.3774C114.381 82.452 114.717 82.4894 115.315 82.4894C115.931 82.4894 116.397 82.424 116.715 82.2934C117.013 82.144 117.228 82.0694 117.359 82.0694C117.415 82.0694 117.443 82.088 117.443 82.1254C117.443 82.1814 117.396 82.256 117.303 82.3494C116.911 82.6854 116.444 82.9747 115.903 83.2174C115.38 83.46 114.773 83.628 114.083 83.7214H113.999C113.98 83.7214 113.952 83.7307 113.915 83.7494C113.877 83.7494 113.803 83.768 113.691 83.8054C111.992 87.184 111.143 89.3307 111.143 90.2454C111.143 90.544 111.255 90.6934 111.479 90.6934L112.263 90.5254L112.291 90.5534C112.291 90.9454 111.983 91.1414 111.367 91.1414ZM117.074 90.9174C115.488 90.9174 114.694 90.18 114.694 88.7054C114.694 87.5667 115.254 86.1854 116.374 84.5614C117.532 82.9374 118.633 82.1254 119.678 82.1254C120.126 82.1254 120.518 82.2747 120.854 82.5734C121.209 82.8534 121.386 83.1987 121.386 83.6094C121.386 84.3 120.948 85 120.07 85.7094C119.212 86.4 118.362 86.7454 117.522 86.7454C117.354 86.7454 117.27 86.708 117.27 86.6334L117.354 86.4934C119.501 85.8214 120.574 84.72 120.574 83.1894C120.574 82.9654 120.5 82.8534 120.35 82.8534C120.145 82.8534 119.772 83.068 119.23 83.4974C118.764 83.8707 118.325 84.3 117.914 84.7854C117.522 85.2707 117.168 85.7747 116.85 86.2974C116.178 87.436 115.842 88.388 115.842 89.1534C115.842 89.9 116.132 90.2734 116.71 90.2734C117.382 90.2734 118.12 89.928 118.922 89.2374C119.184 88.9947 119.464 88.724 119.762 88.4254C120.061 88.108 120.388 87.7627 120.742 87.3894C121.433 86.6427 121.797 86.2694 121.834 86.2694C121.946 86.2694 122.002 86.316 122.002 86.4094C122.002 86.484 121.984 86.5587 121.946 86.6334C119.986 89.4894 118.362 90.9174 117.074 90.9174Z" fill="url(#paint0_linear_148_194)" shape-rendering="crispEdges"/>
</g>
<g filter="url(#filter1_d_148_194)">
<path d="M17.9551 34.0938L15.6309 44.2109C15.3575 45.3958 14.8366 46.2878 14.0684 46.8867C13.2872 47.4987 12.7012 47.8047 12.3106 47.8047C11.933 47.8047 11.7442 47.6094 11.7442 47.2188C11.7442 46.9453 13.2416 40.2201 16.2364 27.043C16.3536 26.5221 16.5814 26.2617 16.92 26.2617C17.2846 26.2617 17.6101 26.8802 17.8965 28.1172C18.196 29.3542 18.3458 30.4414 18.3458 31.3789C18.3458 31.9909 18.2156 32.8958 17.9551 34.0938ZM35.0255 21.0859L28.9122 44.2109C28.6518 45.3958 28.1179 46.2878 27.3106 46.8867C26.4903 47.4987 25.8458 47.8047 25.377 47.8047C25.0385 47.8047 24.8692 47.6224 24.8692 47.2578C24.8692 46.8932 24.9799 46.3203 25.2012 45.5391L31.0606 22.8242C31.282 21.9909 31.7572 21.2812 32.4864 20.6953C33.2286 20.1094 33.9187 19.8164 34.5567 19.8164C34.9473 19.8164 35.1426 20.0117 35.1426 20.4023C35.1426 20.5846 35.1036 20.8125 35.0255 21.0859ZM9.53717 43.0195L4.8692 22.8438C4.79108 22.4531 4.75201 22.2122 4.75201 22.1211C4.75201 21.5091 5.10358 20.9753 5.8067 20.5195C6.50983 20.0508 7.1153 19.8164 7.62311 19.8164C7.84446 19.8164 8.00722 19.8815 8.11139 20.0117C8.21556 20.1289 8.3067 20.3568 8.38483 20.6953L11.959 36.0859C12.1023 36.724 12.1739 37.3945 12.1739 38.0977C12.1739 39.5299 11.959 40.8646 11.5294 42.1016C11.1127 43.3255 10.7025 43.9375 10.2989 43.9375C9.92128 43.9375 9.66738 43.6315 9.53717 43.0195ZM18.1114 21.1641C18.4109 20.7865 18.808 20.4674 19.3028 20.207C19.8106 19.9466 20.2273 19.8164 20.5528 19.8164C20.7611 19.8164 20.9239 19.888 21.0411 20.0312C21.1583 20.1615 21.2624 20.3958 21.3536 20.7344L25.2794 36.8867C25.4356 37.5898 25.5137 38.2148 25.5137 38.7617C25.5137 39.2435 25.3835 40.0182 25.1231 41.0859C24.8757 42.1406 24.6348 42.8893 24.4005 43.332C24.1661 43.7617 23.8991 43.9766 23.5997 43.9766C23.2221 43.9766 22.9551 43.6706 22.7989 43.0586L17.838 23.0586C17.7598 22.7591 17.7208 22.4792 17.7208 22.2188C17.7208 21.8542 17.851 21.5026 18.1114 21.1641ZM42.3497 20.207H52.877C53.4369 20.207 53.7169 20.4089 53.7169 20.8125C53.7169 20.9948 53.5866 21.3268 53.3262 21.8086C53.0658 22.2773 52.7533 22.6745 52.3887 23C52.0893 23.2734 51.614 23.4102 50.963 23.4102H39.752C39.5567 23.4102 39.4135 23.4036 39.3223 23.3906C39.2312 23.3646 39.1465 23.306 39.0684 23.2148C39.0033 23.1237 38.9708 22.9935 38.9708 22.8242C38.9708 22.3424 39.3484 21.7891 40.1036 21.1641C40.8718 20.526 41.6205 20.207 42.3497 20.207ZM38.9903 46.7695V37.1406C38.9903 36.6719 39.1465 36.3659 39.459 36.2227C39.7846 36.0664 40.2859 35.9883 40.963 35.9883C41.6921 35.9883 42.1999 36.0664 42.4864 36.2227C42.7728 36.3659 42.9161 36.6719 42.9161 37.1406V43.6055C42.9161 44.1393 43.183 44.4062 43.7169 44.4062H53.2676C53.8275 44.4062 54.1075 44.6081 54.1075 45.0117C54.1075 45.194 53.9773 45.5326 53.7169 46.0273C53.4564 46.5091 53.1505 46.9062 52.7989 47.2188C52.4994 47.4792 52.0176 47.6094 51.3536 47.6094H39.6739C39.2182 47.6094 38.9903 47.3294 38.9903 46.7695ZM38.9903 34.0156V25.7539C38.9903 25.2852 39.1465 24.9727 39.459 24.8164C39.7846 24.6602 40.2859 24.582 40.963 24.582C41.6921 24.582 42.1999 24.6602 42.4864 24.8164C42.7728 24.9596 42.9161 25.2721 42.9161 25.7539V30.8125C42.9161 31.3464 43.183 31.6133 43.7169 31.6133H51.6661C52.226 31.6133 52.5059 31.8151 52.5059 32.2188C52.5059 32.401 52.3757 32.7331 52.1153 33.2148C51.8549 33.6836 51.5489 34.0807 51.1973 34.4062C50.8978 34.6797 50.4161 34.8164 49.752 34.8164H39.7911C39.2572 34.8164 38.9903 34.5495 38.9903 34.0156ZM62.9161 23.3711H58.8731C58.7038 23.3711 58.5671 23.3646 58.463 23.3516C58.3718 23.3385 58.2872 23.2995 58.209 23.2344C58.1439 23.1562 58.1114 23.0521 58.1114 22.9219C58.1114 22.375 58.4825 21.7956 59.2247 21.1836C59.9669 20.5716 60.7156 20.2461 61.4708 20.207C62.3171 20.168 63.4109 20.1484 64.752 20.1484C65.2989 20.1484 65.7937 20.1615 66.2364 20.1875C66.6921 20.2135 67.2325 20.2786 67.8575 20.3828C68.4955 20.487 69.0554 20.6302 69.5372 20.8125C70.0189 20.9948 70.5137 21.2617 71.0215 21.6133C71.5424 21.9648 71.9721 22.3815 72.3106 22.8633C72.6491 23.332 72.9291 23.931 73.1505 24.6602C73.3718 25.3763 73.4825 26.1836 73.4825 27.082C73.4825 29.0091 72.6947 30.5977 71.1192 31.8477C70.8978 32.0169 70.7872 32.1667 70.7872 32.2969C70.7872 32.4661 70.8848 32.5833 71.0801 32.6484C72.8249 33.2214 74.127 34.0742 74.9864 35.207C75.8458 36.3398 76.2755 37.8763 76.2755 39.8164C76.2755 40.5326 76.1713 41.2487 75.963 41.9648C75.7676 42.668 75.4421 43.3646 74.9864 44.0547C74.5437 44.7318 73.9968 45.3372 73.3458 45.8711C72.7077 46.3919 71.907 46.8151 70.9434 47.1406C69.9799 47.4531 68.9187 47.6094 67.7598 47.6094C67.3041 47.6094 67.0762 47.4857 67.0762 47.2383C67.0762 47.069 67.1804 46.9323 67.3887 46.8281C69.0033 46.112 70.1947 45.194 70.963 44.0742C71.7312 42.9544 72.1153 41.5612 72.1153 39.8945C72.1153 36.5742 70.4877 34.6536 67.2325 34.1328C67.0241 34.0938 66.92 33.9831 66.92 33.8008C66.92 33.6315 67.0762 33.4362 67.3887 33.2148C68.0788 32.707 68.6387 32.0495 69.0684 31.2422C69.4981 30.4219 69.713 29.5169 69.713 28.5273C69.713 27.6419 69.5827 26.8802 69.3223 26.2422C69.0749 25.5911 68.7494 25.0898 68.3458 24.7383C67.9551 24.3737 67.4408 24.0872 66.8028 23.8789C66.1778 23.6576 65.5723 23.5208 64.9864 23.4688C64.4005 23.4036 63.7103 23.3711 62.9161 23.3711ZM58.1114 46.7695V25.7148C58.1114 25.2461 58.2676 24.9336 58.5801 24.7773C58.9057 24.6211 59.4005 24.543 60.0645 24.543C60.7937 24.543 61.3015 24.6211 61.588 24.7773C61.8874 24.9206 62.0372 25.2331 62.0372 25.7148V30.3242C62.0372 30.8581 62.3041 31.125 62.838 31.125H66.2755C66.8353 31.125 67.1153 31.3008 67.1153 31.6523C67.1153 31.8086 66.9721 32.0625 66.6856 32.4141C66.3991 32.7656 66.0476 33.0586 65.6309 33.293C65.1752 33.5534 64.2442 33.8073 62.838 34.0547C62.3041 34.1589 62.0372 34.5039 62.0372 35.0898V43.6055C62.0372 44.1393 62.3041 44.4062 62.838 44.4062H67.0372C67.5971 44.4062 67.877 44.569 67.877 44.8945C67.877 45.168 67.5645 45.5195 66.9395 45.9492C66.3145 46.3789 65.5202 46.763 64.5567 47.1016C63.6062 47.4401 62.7338 47.6094 61.9395 47.6094H58.9122C58.3783 47.6094 58.1114 47.3294 58.1114 46.7695Z" fill="url(#paint1_linear_148_194)" shape-rendering="crispEdges"/>
</g>
<g filter="url(#filter2_d_148_194)">
<path d="M31.947 66.5166V73.5439C31.947 74.4372 31.7556 75.1025 31.3727 75.54C30.917 76.0869 30.2699 76.57 29.4313 76.9893C28.611 77.4085 27.9365 77.6182 27.4079 77.6182C26.7699 77.6182 26.4509 77.2262 26.4509 76.4424V66.5166C26.4509 65.8604 26.6787 65.4137 27.1345 65.1768C27.6084 64.9398 28.3102 64.8213 29.2399 64.8213C30.2425 64.8213 30.9444 64.9398 31.3454 65.1768C31.7464 65.3955 31.947 65.8421 31.947 66.5166ZM26.4509 61.1846V46.6104C26.4509 45.9541 26.6696 45.5257 27.1071 45.3252C27.5628 45.1064 28.2556 44.9971 29.1852 44.9971C30.2061 44.9971 30.917 45.1064 31.3181 45.3252C31.7373 45.5257 31.947 45.9541 31.947 46.6104V58.0127C31.947 58.7965 32.2933 59.1885 32.986 59.1885H37.5524C38.3363 59.1885 38.7282 59.4163 38.7282 59.8721C38.7282 60.3096 38.3272 60.82 37.5251 61.4033C36.7412 61.9684 35.7295 62.4424 34.4899 62.8252C33.7243 63.0622 31.8285 63.1807 28.8024 63.1807C27.8727 63.1807 27.2438 63.0166 26.9157 62.6885C26.6058 62.3604 26.4509 61.859 26.4509 61.1846ZM44.0329 52.5439C44.0329 46.4736 40.4326 43.4385 33.2321 43.4385H27.5173C27.2803 43.4385 27.0889 43.4294 26.9431 43.4111C26.8155 43.3929 26.697 43.3382 26.5876 43.2471C26.4964 43.1377 26.4509 42.9919 26.4509 42.8096C26.4509 42.0439 26.9704 41.2236 28.0095 40.3486C29.0668 39.4736 30.1149 39.0179 31.154 38.9814L34.0524 38.9541L37.5524 38.9814C38.5368 38.9997 39.5303 39.1182 40.5329 39.3369C41.5537 39.5374 42.6384 39.9294 43.7868 40.5127C44.9352 41.096 45.947 41.8343 46.822 42.7275C47.697 43.6208 48.417 44.8239 48.9821 46.3369C49.5655 47.8499 49.8571 49.5635 49.8571 51.4775C49.8571 52.2249 49.7569 53.0452 49.5563 53.9385C49.374 54.8317 49.0186 55.8252 48.4899 56.9189C47.9795 58.0127 47.3324 59.0153 46.5485 59.9268C45.7829 60.82 44.7438 61.6221 43.4313 62.333C42.1188 63.0257 40.6423 63.4723 39.0016 63.6729H38.8376C38.3454 63.6729 38.0993 63.4632 38.0993 63.0439C38.0993 62.7887 38.3089 62.5335 38.7282 62.2783C42.2647 60.0908 44.0329 56.846 44.0329 52.5439ZM59.6462 68.9229L58.1149 73.5439C57.7321 74.7106 57.0668 75.6859 56.1188 76.4697C55.1709 77.2354 54.1045 77.6182 52.9196 77.6182C52.628 77.6182 52.3819 77.5361 52.1813 77.3721C51.999 77.2262 51.9079 77.0075 51.9079 76.7158C51.9079 76.6064 51.9444 76.4424 52.0173 76.2236L54.6423 68.7041C54.7699 68.3213 54.9066 68.0296 55.0524 67.8291C55.1983 67.6104 55.3988 67.4554 55.654 67.3643C55.9274 67.2731 56.1644 67.2184 56.3649 67.2002C56.5837 67.182 56.9483 67.1729 57.4587 67.1729C57.878 67.1729 58.1878 67.182 58.3884 67.2002C58.5889 67.2002 58.8168 67.2275 59.072 67.2822C59.3454 67.3369 59.5368 67.4372 59.6462 67.583C59.7556 67.7106 59.8102 67.8929 59.8102 68.1299C59.8102 68.2939 59.7556 68.5583 59.6462 68.9229ZM68.6423 39.3096L80.2907 73.1885C80.4183 73.7718 80.4821 74.0999 80.4821 74.1729C80.4821 74.9567 80.0264 75.7314 79.1149 76.4971C78.2035 77.2445 77.4014 77.6182 76.7087 77.6182C76.1071 77.6182 75.6423 77.1533 75.3141 76.2236L63.9391 43.0283C63.7569 42.208 63.6657 41.7705 63.6657 41.7158C63.6657 40.9137 64.167 40.1208 65.1696 39.3369C66.1905 38.5348 66.9743 38.1338 67.5212 38.1338C67.8311 38.1338 68.0498 38.2158 68.1774 38.3799C68.3233 38.5257 68.4782 38.8356 68.6423 39.3096ZM68.1501 65.5322H57.0485C56.3558 65.5322 56.0095 65.2314 56.0095 64.6299C56.0095 64.4658 56.0459 64.2835 56.1188 64.083L61.7243 47.3213C61.9795 46.6104 62.2712 46.2549 62.5993 46.2549C62.891 46.2549 63.1462 46.4372 63.3649 46.8018C63.5837 47.1481 63.8207 47.7132 64.0759 48.4971C64.5498 49.9736 64.7868 51.0765 64.7868 51.8057C64.7868 52.3161 64.6957 52.8538 64.5134 53.4189L62.3806 59.9268C62.3441 60.0179 62.3259 60.1455 62.3259 60.3096C62.3259 60.8018 62.6084 61.0479 63.1735 61.0479H66.0173C66.947 61.0479 67.5759 61.0934 67.904 61.1846C68.2321 61.2757 68.4964 61.5309 68.697 61.9502C68.8793 62.3148 69.0251 62.7887 69.1345 63.3721C69.2621 63.9372 69.3259 64.3564 69.3259 64.6299C69.3259 65.2314 68.9339 65.5322 68.1501 65.5322ZM104.927 43.4658H82.5329C81.749 43.4658 81.3571 43.1833 81.3571 42.6182C81.3571 42.363 81.5394 41.8981 81.904 41.2236C82.2686 40.5492 82.697 39.9932 83.1891 39.5557C83.6084 39.1729 84.2829 38.9814 85.2126 38.9814H107.607C108.391 38.9814 108.783 39.264 108.783 39.8291C108.783 40.0843 108.601 40.5492 108.236 41.2236C107.871 41.8981 107.443 42.4541 106.951 42.8916C106.532 43.2744 105.857 43.4658 104.927 43.4658ZM91.8298 76.4424L91.8024 46.7471C91.8024 46.0908 92.0212 45.6624 92.4587 45.4619C92.9144 45.2432 93.6071 45.1338 94.5368 45.1338C95.5576 45.1338 96.2686 45.2432 96.6696 45.4619C97.0889 45.6624 97.2985 46.0908 97.2985 46.7471V73.5439C97.2985 74.3278 97.1162 74.9385 96.7516 75.376C96.2777 75.9411 95.6214 76.4606 94.7829 76.9346C93.9626 77.3903 93.2972 77.6182 92.7868 77.6182C92.1488 77.6182 91.8298 77.2262 91.8298 76.4424ZM118.791 39.6104V73.5439C118.791 74.4372 118.599 75.1025 118.216 75.54C117.761 76.0869 117.114 76.57 116.275 76.9893C115.455 77.4085 114.78 77.6182 114.252 77.6182C113.614 77.6182 113.295 77.2262 113.295 76.4424V42.5088C113.295 41.7432 113.486 41.1325 113.869 40.6768C114.343 40.1117 114.99 39.6012 115.81 39.1455C116.631 38.6715 117.305 38.4346 117.834 38.4346C118.472 38.4346 118.791 38.8265 118.791 39.6104Z" fill="#FF009A" shape-rendering="crispEdges"/>
<path d="M31.3727 75.54L31.1845 75.3754L31.1807 75.38L31.3727 75.54ZM29.4313 76.9893L29.3195 76.7656L29.3176 76.7666L29.4313 76.9893ZM27.1345 65.1768L27.0226 64.9531L27.0191 64.955L27.1345 65.1768ZM31.3454 65.1768L31.2181 65.3921L31.2257 65.3962L31.3454 65.1768ZM27.1071 45.3252L27.2113 45.5525L27.2153 45.5506L27.1071 45.3252ZM31.3181 45.3252L31.1982 45.545L31.2102 45.5507L31.3181 45.3252ZM37.5251 61.4033L37.6713 61.6061L37.6721 61.6055L37.5251 61.4033ZM34.4899 62.8252L34.4162 62.5863L34.416 62.5864L34.4899 62.8252ZM26.9157 62.6885L26.7339 62.8602L26.7389 62.8653L26.9157 62.6885ZM26.9431 43.4111L26.9077 43.6587L26.912 43.6592L26.9431 43.4111ZM26.5876 43.2471L26.3955 43.4071L26.4101 43.4246L26.4275 43.4391L26.5876 43.2471ZM28.0095 40.3486L27.8501 40.156L27.8484 40.1574L28.0095 40.3486ZM31.154 38.9814L31.1516 38.7314L31.1452 38.7316L31.154 38.9814ZM34.0524 38.9541L34.0544 38.7041L34.0501 38.7041L34.0524 38.9541ZM37.5524 38.9814L37.5571 38.7315L37.5544 38.7315L37.5524 38.9814ZM40.5329 39.3369L40.4796 39.5812L40.4847 39.5822L40.5329 39.3369ZM48.9821 46.3369L48.7479 46.4244L48.7489 46.4268L48.9821 46.3369ZM49.5563 53.9385L49.3124 53.8837L49.3114 53.8885L49.5563 53.9385ZM48.4899 56.9189L48.2648 56.8101L48.2634 56.8132L48.4899 56.9189ZM46.5485 59.9268L46.359 59.7637L46.3587 59.7641L46.5485 59.9268ZM43.4313 62.333L43.548 62.5541L43.5504 62.5528L43.4313 62.333ZM39.0016 63.6729V63.9229H39.0169L39.032 63.921L39.0016 63.6729ZM38.7282 62.2783L38.8582 62.4919L38.8597 62.4909L38.7282 62.2783ZM31.697 66.5166V73.5439H32.197V66.5166H31.697ZM31.697 73.5439C31.697 74.4078 31.5109 75.0025 31.1846 75.3754L31.5609 75.7047C32.0002 75.2026 32.197 74.4665 32.197 73.5439H31.697ZM31.1807 75.38C30.7528 75.8934 30.1365 76.3571 29.3195 76.7656L29.5431 77.2129C30.4032 76.7828 31.0812 76.2804 31.5648 75.7001L31.1807 75.38ZM29.3176 76.7666C28.5099 77.1794 27.8777 77.3682 27.4079 77.3682V77.8682C27.9954 77.8682 28.7121 77.6376 29.5451 77.2119L29.3176 76.7666ZM27.4079 77.3682C27.1426 77.3682 26.984 77.2892 26.884 77.1664C26.7761 77.0338 26.7009 76.8068 26.7009 76.4424H26.2009C26.2009 76.8618 26.2852 77.2227 26.4962 77.482C26.7153 77.7512 27.0352 77.8682 27.4079 77.8682V77.3682ZM26.7009 76.4424V66.5166H26.2009V76.4424H26.7009ZM26.7009 66.5166C26.7009 65.9231 26.9008 65.58 27.2498 65.3986L27.0191 64.955C26.4567 65.2474 26.2009 65.7976 26.2009 66.5166H26.7009ZM27.2463 65.4004C27.6684 65.1893 28.3239 65.0713 29.2399 65.0713V64.5713C28.2966 64.5713 27.5484 64.6903 27.0227 64.9532L27.2463 65.4004ZM29.2399 65.0713C30.2384 65.0713 30.8799 65.1921 31.2182 65.392L31.4726 64.9615C31.0088 64.6875 30.2466 64.5713 29.2399 64.5713V65.0713ZM31.2257 65.3962C31.5115 65.5521 31.697 65.8854 31.697 66.5166H32.197C32.197 65.7988 31.9814 65.2389 31.4651 64.9573L31.2257 65.3962ZM26.7009 61.1846V46.6104H26.2009V61.1846H26.7009ZM26.7009 46.6104C26.7009 46.01 26.8953 45.6973 27.2113 45.5525L27.003 45.0979C26.4439 45.3541 26.2009 45.8982 26.2009 46.6104H26.7009ZM27.2153 45.5506C27.6196 45.3565 28.2667 45.2471 29.1852 45.2471V44.7471C28.2444 44.7471 27.5061 44.8564 26.9989 45.0998L27.2153 45.5506ZM29.1852 45.2471C30.2039 45.2471 30.8577 45.3589 31.1983 45.5447L31.4378 45.1057C30.9763 44.854 30.2082 44.7471 29.1852 44.7471V45.2471ZM31.2102 45.5507C31.5078 45.6931 31.697 46.0046 31.697 46.6104H32.197C32.197 45.9036 31.9668 45.3584 31.4259 45.0997L31.2102 45.5507ZM31.697 46.6104V58.0127H32.197V46.6104H31.697ZM31.697 58.0127C31.697 58.4361 31.7898 58.8003 32.0194 59.0601C32.2542 59.3257 32.5926 59.4385 32.986 59.4385V58.9385C32.6868 58.9385 32.5056 58.8552 32.3941 58.729C32.2773 58.5968 32.197 58.3732 32.197 58.0127H31.697ZM32.986 59.4385H37.5524V58.9385H32.986V59.4385ZM37.5524 59.4385C37.9283 59.4385 38.1694 59.4946 38.3086 59.5755C38.4271 59.6444 38.4782 59.7327 38.4782 59.8721H38.9782C38.9782 59.5557 38.8334 59.3022 38.5599 59.1432C38.3072 58.9963 37.9604 58.9385 37.5524 58.9385V59.4385ZM38.4782 59.8721C38.4782 60.0134 38.4128 60.1969 38.2308 60.4286C38.05 60.6588 37.7692 60.9167 37.378 61.2011L37.6721 61.6055C38.0831 61.3066 38.4039 61.0177 38.624 60.7375C38.8431 60.4587 38.9782 60.1682 38.9782 59.8721H38.4782ZM37.3789 61.2005C36.6231 61.7454 35.6381 62.209 34.4162 62.5863L34.5637 63.0641C35.8209 62.6758 36.8593 62.1915 37.6713 61.6061L37.3789 61.2005ZM34.416 62.5864C34.0645 62.6952 33.4259 62.7831 32.4782 62.8423C31.5376 62.9011 30.3129 62.9307 28.8024 62.9307V63.4307C30.318 63.4307 31.5542 63.401 32.5094 63.3413C33.4576 63.2821 34.1497 63.1922 34.5639 63.064L34.416 62.5864ZM28.8024 62.9307C27.8814 62.9307 27.3446 62.7638 27.0925 62.5117L26.7389 62.8653C27.1431 63.2694 27.8641 63.4307 28.8024 63.4307V62.9307ZM27.0975 62.5168C26.8488 62.2536 26.7009 61.8262 26.7009 61.1846H26.2009C26.2009 61.8919 26.3628 62.4671 26.734 62.8601L27.0975 62.5168ZM44.2829 52.5439C44.2829 49.458 43.3658 47.1018 41.4938 45.5237C39.6301 43.9525 36.8615 43.1885 33.2321 43.1885V43.6885C36.8033 43.6885 39.435 44.442 41.1716 45.906C42.8999 47.363 43.7829 49.5596 43.7829 52.5439H44.2829ZM33.2321 43.1885H27.5173V43.6885H33.2321V43.1885ZM27.5173 43.1885C27.2852 43.1885 27.1053 43.1795 26.9741 43.1631L26.912 43.6592C27.0724 43.6793 27.2754 43.6885 27.5173 43.6885V43.1885ZM26.9784 43.1636C26.9014 43.1526 26.8252 43.1197 26.7476 43.055L26.4275 43.4391C26.5687 43.5568 26.7295 43.6332 26.9077 43.6586L26.9784 43.1636ZM26.7796 43.087C26.7354 43.0339 26.7009 42.9501 26.7009 42.8096H26.2009C26.2009 43.0336 26.2575 43.2414 26.3955 43.4071L26.7796 43.087ZM26.7009 42.8096C26.7009 42.1584 27.1466 41.4021 28.1705 40.5399L27.8484 40.1574C26.7942 41.0452 26.2009 41.9294 26.2009 42.8096H26.7009ZM28.1689 40.5412C29.1972 39.6902 30.1942 39.2653 31.1628 39.2313L31.1452 38.7316C30.0356 38.7705 28.9363 39.2571 27.8501 40.156L28.1689 40.5412ZM31.1564 39.2314L34.0548 39.2041L34.0501 38.7041L31.1516 38.7315L31.1564 39.2314ZM34.0505 39.2041L37.5505 39.2314L37.5544 38.7315L34.0544 38.7041L34.0505 39.2041ZM37.5478 39.2314C38.5151 39.2493 39.4923 39.3658 40.4796 39.5812L40.5862 39.0927C39.5683 38.8706 38.5585 38.75 37.5571 38.7315L37.5478 39.2314ZM40.4847 39.5822C41.4783 39.7774 42.541 40.1603 43.6736 40.7356L43.9 40.2898C42.7357 39.6984 41.6291 39.2975 40.5811 39.0916L40.4847 39.5822ZM43.6736 40.7356C44.7985 41.307 45.788 42.0293 46.6434 42.9025L47.0005 42.5526C46.1059 41.6393 45.072 40.8851 43.9 40.2898L43.6736 40.7356ZM46.6434 42.9025C47.4879 43.7646 48.1916 44.9349 48.7479 46.4244L49.2163 46.2494C48.6424 44.7129 47.906 43.4769 47.0005 42.5526L46.6434 42.9025ZM48.7489 46.4268C49.3193 47.9065 49.6071 49.5888 49.6071 51.4775H50.1071C50.1071 49.5382 49.8116 47.7934 49.2154 46.247L48.7489 46.4268ZM49.6071 51.4775C49.6071 52.2029 49.5098 53.0046 49.3124 53.8837L49.8003 53.9932C50.004 53.0859 50.1071 52.2469 50.1071 51.4775H49.6071ZM49.3114 53.8885C49.1344 54.7559 48.7872 55.7293 48.2648 56.8102L48.715 57.0277C49.2499 55.9211 49.6137 54.9075 49.8013 53.9885L49.3114 53.8885ZM48.2634 56.8132C47.7626 57.8864 47.1279 58.8697 46.359 59.7637L46.7381 60.0898C47.5369 59.1609 48.1964 58.139 48.7165 57.0247L48.2634 56.8132ZM46.3587 59.7641C45.6175 60.6288 44.6048 61.4131 43.3123 62.1132L43.5504 62.5528C44.8829 61.8311 45.9483 61.0112 46.7383 60.0895L46.3587 59.7641ZM43.3146 62.1119C42.0319 62.7889 40.5852 63.2275 38.9713 63.4247L39.032 63.921C40.6994 63.7172 42.2057 63.2625 43.548 62.5541L43.3146 62.1119ZM39.0016 63.4229H38.8376V63.9229H39.0016V63.4229ZM38.8376 63.4229C38.6211 63.4229 38.5054 63.3759 38.446 63.3253C38.3943 63.2813 38.3493 63.2036 38.3493 63.0439H37.8493C37.8493 63.3035 37.9274 63.5403 38.1218 63.7059C38.3085 63.865 38.5619 63.9229 38.8376 63.9229V63.4229ZM38.3493 63.0439C38.3493 62.9323 38.4474 62.7419 38.8582 62.4919L38.5982 62.0648C38.1705 62.3252 37.8493 62.6451 37.8493 63.0439H38.3493ZM38.8597 62.4909C42.4729 60.256 44.2829 56.929 44.2829 52.5439H43.7829C43.7829 56.7631 42.0564 59.9257 38.5967 62.0657L38.8597 62.4909ZM59.6462 68.9229L59.8836 69.0015L59.8856 68.9947L59.6462 68.9229ZM58.1149 73.5439L57.8776 73.4653L57.8774 73.466L58.1149 73.5439ZM56.1188 76.4697L56.2759 76.6642L56.2782 76.6624L56.1188 76.4697ZM52.1813 77.3721L52.3397 77.1786L52.3375 77.1768L52.1813 77.3721ZM52.0173 76.2236L51.7812 76.1412L51.7801 76.1446L52.0173 76.2236ZM54.6423 68.7041L54.8783 68.7865L54.8794 68.7832L54.6423 68.7041ZM55.0524 67.8291L55.2548 67.9763L55.2604 67.9678L55.0524 67.8291ZM55.654 67.3643L55.5749 67.127L55.5699 67.1288L55.654 67.3643ZM56.3649 67.2002L56.3442 66.9511L56.3423 66.9512L56.3649 67.2002ZM58.3884 67.2002L58.3657 67.4492L58.377 67.4502H58.3884V67.2002ZM59.072 67.2822L59.0196 67.5267L59.0229 67.5274L59.072 67.2822ZM59.6462 67.583L59.4462 67.733L59.4511 67.7395L59.4564 67.7457L59.6462 67.583ZM68.6423 39.3096L68.8787 39.2283L68.8785 39.2278L68.6423 39.3096ZM80.2907 73.1885L80.5349 73.1351L80.5318 73.1209L80.5271 73.1072L80.2907 73.1885ZM79.1149 76.4971L79.2735 76.6904L79.2757 76.6885L79.1149 76.4971ZM75.3141 76.2236L75.0776 76.3047L75.0784 76.3068L75.3141 76.2236ZM63.9391 43.0283L63.6951 43.0826L63.6981 43.0962L63.7026 43.1094L63.9391 43.0283ZM65.1696 39.3369L65.3236 39.5339L65.3241 39.5335L65.1696 39.3369ZM68.1774 38.3799L67.9801 38.5334L67.9896 38.5457L68.0007 38.5567L68.1774 38.3799ZM56.1188 64.083L56.3539 64.1685L56.3559 64.1623L56.1188 64.083ZM61.7243 47.3213L61.4889 47.2368L61.4872 47.242L61.7243 47.3213ZM63.3649 46.8018L63.1505 46.9304L63.1536 46.9353L63.3649 46.8018ZM64.0759 48.4971L64.3139 48.4207L64.3136 48.4197L64.0759 48.4971ZM64.5134 53.4189L64.7509 53.4968L64.7513 53.4957L64.5134 53.4189ZM62.3806 59.9268L62.6127 60.0196L62.6156 60.0122L62.6181 60.0046L62.3806 59.9268ZM68.697 61.9502L68.4714 62.0581L68.4734 62.062L68.697 61.9502ZM69.1345 63.3721L68.8886 63.4182L68.8906 63.4271L69.1345 63.3721ZM59.4089 68.8442L57.8776 73.4653L58.3522 73.6226L59.8835 69.0015L59.4089 68.8442ZM57.8774 73.466C57.5093 74.5877 56.8711 75.5232 55.9595 76.2771L56.2782 76.6624C57.2624 75.8485 57.9549 74.8335 58.3525 73.6219L57.8774 73.466ZM55.9618 76.2752C55.0569 77.0061 54.0456 77.3682 52.9196 77.3682V77.8682C54.1634 77.8682 55.2849 77.4647 56.2759 76.6642L55.9618 76.2752ZM52.9196 77.3682C52.678 77.3682 52.4899 77.3015 52.3396 77.1786L52.023 77.5656C52.2738 77.7708 52.5779 77.8682 52.9196 77.8682V77.3682ZM52.3375 77.1768C52.229 77.0901 52.1579 76.9523 52.1579 76.7158H51.6579C51.6579 77.0627 51.7691 77.3624 52.0252 77.5673L52.3375 77.1768ZM52.1579 76.7158C52.1579 76.6493 52.1828 76.5177 52.2544 76.3027L51.7801 76.1446C51.706 76.367 51.6579 76.5635 51.6579 76.7158H52.1579ZM52.2533 76.306L54.8783 68.7865L54.4062 68.6217L51.7812 76.1412L52.2533 76.306ZM54.8794 68.7832C55.0033 68.4114 55.1303 68.1471 55.2546 67.9761L54.8502 67.6821C54.6829 67.9122 54.5364 68.2311 54.4051 68.625L54.8794 68.7832ZM55.2604 67.9678C55.3755 67.7952 55.5318 67.6734 55.7381 67.5997L55.5699 67.1288C55.2657 67.2375 55.021 67.4255 54.8444 67.6904L55.2604 67.9678ZM55.733 67.6014C55.9953 67.514 56.2125 67.4651 56.3876 67.4492L56.3423 66.9512C56.1163 66.9718 55.8595 67.0322 55.5749 67.1271L55.733 67.6014ZM56.3857 67.4493C56.5931 67.432 56.9486 67.4229 57.4587 67.4229V66.9229C56.948 66.9229 56.5742 66.9319 56.3442 66.9511L56.3857 67.4493ZM57.4587 67.4229C57.8766 67.4229 58.1771 67.432 58.3657 67.4492L58.411 66.9512C58.1986 66.9319 57.8793 66.9229 57.4587 66.9229V67.4229ZM58.3884 67.4502C58.5669 67.4502 58.7767 67.4746 59.0196 67.5267L59.1243 67.0378C58.8568 66.9804 58.6108 66.9502 58.3884 66.9502V67.4502ZM59.0229 67.5274C59.2669 67.5762 59.389 67.6568 59.4462 67.733L59.8462 67.433C59.6846 67.2176 59.4239 67.0977 59.121 67.0371L59.0229 67.5274ZM59.4564 67.7457C59.5136 67.8125 59.5602 67.9284 59.5602 68.1299H60.0602C60.0602 67.8574 59.9975 67.6087 59.836 67.4203L59.4564 67.7457ZM59.5602 68.1299C59.5602 68.2539 59.5159 68.4872 59.4067 68.851L59.8856 68.9947C59.9952 68.6293 60.0602 68.334 60.0602 68.1299H59.5602ZM68.4059 39.3909L80.0543 73.2698L80.5271 73.1072L68.8787 39.2283L68.4059 39.3909ZM80.0465 73.2419C80.1101 73.5329 80.1575 73.7586 80.1889 73.9198C80.2046 74.0006 80.2159 74.0635 80.2233 74.1096C80.2316 74.1619 80.2321 74.1773 80.2321 74.1729H80.7321C80.7321 74.132 80.7247 74.079 80.717 74.031C80.7084 73.9769 80.6959 73.9076 80.6797 73.8244C80.6472 73.6575 80.5989 73.4274 80.5349 73.1351L80.0465 73.2419ZM80.2321 74.1729C80.2321 74.8513 79.8387 75.5626 78.9541 76.3056L79.2757 76.6885C80.2141 75.9003 80.7321 75.0621 80.7321 74.1729H80.2321ZM78.9564 76.3038C78.0611 77.0379 77.3151 77.3682 76.7087 77.3682V77.8682C77.4877 77.8682 78.3459 77.451 79.2734 76.6904L78.9564 76.3038ZM76.7087 77.3682C76.2738 77.3682 75.8684 77.043 75.5499 76.1404L75.0784 76.3068C75.4161 77.2637 75.9405 77.8682 76.7087 77.8682V77.3682ZM75.5506 76.1426L64.1756 42.9473L63.7026 43.1094L75.0776 76.3047L75.5506 76.1426ZM64.1832 42.9741C64.0921 42.5643 64.024 42.2511 63.9788 42.034C63.9562 41.9252 63.9395 41.8419 63.9286 41.7831C63.9231 41.7535 63.9194 41.7318 63.9172 41.7168C63.914 41.6959 63.9157 41.7011 63.9157 41.7158H63.4157C63.4157 41.7443 63.4203 41.775 63.4228 41.7917C63.4262 41.8144 63.4311 41.8422 63.437 41.8741C63.4489 41.9384 63.4664 42.0259 63.4893 42.136C63.5352 42.3563 63.6039 42.6721 63.6951 43.0826L64.1832 42.9741ZM63.9157 41.7158C63.9157 41.0268 64.3459 40.2983 65.3236 39.5339L65.0156 39.14C63.9882 39.9433 63.4157 40.8007 63.4157 41.7158H63.9157ZM65.3241 39.5335C65.8272 39.1382 66.2644 38.8478 66.637 38.6571C67.0128 38.4648 67.3044 38.3838 67.5212 38.3838V37.8838C67.1911 37.8838 66.8173 38.0033 66.4093 38.212C65.998 38.4224 65.5329 38.7336 65.0152 39.1403L65.3241 39.5335ZM67.5212 38.3838C67.793 38.3838 67.9196 38.4555 67.9801 38.5334L68.3748 38.2264C68.1801 37.9761 67.8691 37.8838 67.5212 37.8838V38.3838ZM68.0007 38.5567C68.046 38.602 68.1069 38.6886 68.1794 38.8335C68.2504 38.9755 68.3261 39.1605 68.406 39.3913L68.8785 39.2278C68.7944 38.9847 68.7106 38.7778 68.6266 38.6099C68.5441 38.4449 68.4547 38.3036 68.3542 38.2031L68.0007 38.5567ZM68.1501 65.2822H57.0485V65.7822H68.1501V65.2822ZM57.0485 65.2822C56.7327 65.2822 56.5426 65.2129 56.4331 65.1179C56.3305 65.0287 56.2595 64.8822 56.2595 64.6299H55.7595C55.7595 64.9791 55.8616 65.2838 56.1053 65.4954C56.3422 65.7012 56.6716 65.7822 57.0485 65.7822V65.2822ZM56.2595 64.6299C56.2595 64.5022 56.288 64.3494 56.3538 64.1684L55.8839 63.9976C55.8038 64.2177 55.7595 64.4294 55.7595 64.6299H56.2595ZM56.3559 64.1623L61.9614 47.4006L61.4872 47.242L55.8817 64.0037L56.3559 64.1623ZM61.9596 47.4058C62.0829 47.0622 62.208 46.826 62.3277 46.6801C62.446 46.5359 62.5367 46.5049 62.5993 46.5049V46.0049C62.3337 46.0049 62.1145 46.1516 61.9412 46.3629C61.7693 46.5724 61.6209 46.8694 61.489 47.2368L61.9596 47.4058ZM62.5993 46.5049C62.7667 46.5049 62.9544 46.6035 63.1506 46.9304L63.5793 46.6731C63.338 46.2709 63.0152 46.0049 62.5993 46.0049V46.5049ZM63.1536 46.9353C63.355 47.2542 63.5843 47.7947 63.8382 48.5745L64.3136 48.4197C64.057 47.6317 63.8124 47.0421 63.5763 46.6683L63.1536 46.9353ZM63.8378 48.5735C64.3107 50.0467 64.5368 51.118 64.5368 51.8057H65.0368C65.0368 51.035 64.7889 49.9006 64.3139 48.4207L63.8378 48.5735ZM64.5368 51.8057C64.5368 52.2862 64.451 52.7979 64.2754 53.3422L64.7513 53.4957C64.9403 52.9098 65.0368 52.346 65.0368 51.8057H64.5368ZM64.2758 53.3411L62.143 59.8489L62.6181 60.0046L64.7509 53.4968L64.2758 53.3411ZM62.1484 59.8339C62.0948 59.9679 62.0759 60.1322 62.0759 60.3096H62.5759C62.5759 60.1588 62.5934 60.0679 62.6127 60.0196L62.1484 59.8339ZM62.0759 60.3096C62.0759 60.6039 62.1619 60.8675 62.3736 61.0518C62.5786 61.2304 62.8603 61.2979 63.1735 61.2979V60.7979C62.9217 60.7979 62.7795 60.7423 62.702 60.6748C62.6311 60.613 62.5759 60.5075 62.5759 60.3096H62.0759ZM63.1735 61.2979H66.0173V60.7979H63.1735V61.2979ZM66.0173 61.2979C66.9505 61.2979 67.5465 61.3447 67.8371 61.4254L67.9709 60.9437C67.6053 60.8421 66.9434 60.7979 66.0173 60.7979V61.2979ZM67.8371 61.4254C68.0728 61.4909 68.2902 61.6791 68.4714 62.0581L68.9225 61.8423C68.7027 61.3828 68.3914 61.0605 67.9709 60.9437L67.8371 61.4254ZM68.4734 62.062C68.6417 62.3987 68.7819 62.8482 68.8887 63.4181L69.3802 63.326C69.2683 62.7292 69.1168 62.2309 68.9206 61.8384L68.4734 62.062ZM68.8906 63.4271C69.0176 63.9896 69.0759 64.386 69.0759 64.6299H69.5759C69.5759 64.3269 69.5065 63.8848 69.3783 63.317L68.8906 63.4271ZM69.0759 64.6299C69.0759 64.8718 69.0005 65.0156 68.8797 65.1083C68.7464 65.2106 68.5171 65.2822 68.1501 65.2822V65.7822C68.567 65.7822 68.9255 65.7035 69.1841 65.505C69.4553 65.2969 69.5759 64.9895 69.5759 64.6299H69.0759ZM83.1891 39.5557L83.3553 39.7425L83.3577 39.7403L83.1891 39.5557ZM108.236 41.2236L108.456 41.3425L108.236 41.2236ZM106.951 42.8916L106.785 42.7047L106.782 42.707L106.951 42.8916ZM91.8298 76.4424H92.0798V76.4422L91.8298 76.4424ZM91.8024 46.7471H91.5524V46.7473L91.8024 46.7471ZM92.4587 45.4619L92.5629 45.6892L92.5669 45.6873L92.4587 45.4619ZM96.6696 45.4619L96.5497 45.6817L96.5618 45.6874L96.6696 45.4619ZM96.7516 75.376L96.9432 75.5366L96.9437 75.536L96.7516 75.376ZM94.7829 76.9346L94.9043 77.1531L94.9059 77.1522L94.7829 76.9346ZM104.927 43.2158H82.5329V43.7158H104.927V43.2158ZM82.5329 43.2158C82.1635 43.2158 81.9315 43.1479 81.7973 43.0511C81.6781 42.9652 81.6071 42.8359 81.6071 42.6182H81.1071C81.1071 42.9655 81.232 43.26 81.5049 43.4567C81.7625 43.6425 82.1184 43.7158 82.5329 43.7158V43.2158ZM81.6071 42.6182C81.6071 42.5392 81.6381 42.3951 81.7266 42.1694C81.8126 41.95 81.9442 41.675 82.1239 41.3425L81.6841 41.1048C81.4992 41.4467 81.3573 41.7414 81.2611 41.9869C81.1673 42.226 81.1071 42.442 81.1071 42.6182H81.6071ZM82.1239 41.3425C82.4769 40.6895 82.8881 40.1578 83.3552 39.7425L83.0231 39.3688C82.5058 39.8286 82.0603 40.4088 81.6841 41.1048L82.1239 41.3425ZM83.3577 39.7403C83.7092 39.4193 84.3079 39.2314 85.2126 39.2314V38.7314C84.2579 38.7314 83.5076 38.9264 83.0206 39.371L83.3577 39.7403ZM85.2126 39.2314H107.607V38.7314H85.2126V39.2314ZM107.607 39.2314C107.977 39.2314 108.208 39.2994 108.343 39.3962C108.462 39.482 108.533 39.6113 108.533 39.8291H109.033C109.033 39.4818 108.908 39.1872 108.635 38.9906C108.377 38.8048 108.022 38.7314 107.607 38.7314V39.2314ZM108.533 39.8291C108.533 39.9081 108.502 40.0521 108.413 40.2779C108.327 40.4973 108.196 40.7723 108.016 41.1048L108.456 41.3425C108.641 41.0005 108.783 40.7059 108.879 40.4604C108.973 40.2213 109.033 40.0053 109.033 39.8291H108.533ZM108.016 41.1048C107.663 41.7577 107.252 42.2895 106.785 42.7048L107.117 43.0785C107.634 42.6187 108.08 42.0385 108.456 41.3425L108.016 41.1048ZM106.782 42.707C106.431 43.0279 105.832 43.2158 104.927 43.2158V43.7158C105.882 43.7158 106.632 43.5209 107.119 43.0762L106.782 42.707ZM92.0798 76.4422L92.0524 46.7468L91.5524 46.7473L91.5798 76.4426L92.0798 76.4422ZM92.0524 46.7471C92.0524 46.1467 92.2469 45.834 92.5628 45.6892L92.3545 45.2346C91.7955 45.4909 91.5524 46.035 91.5524 46.7471H92.0524ZM92.5669 45.6873C92.9712 45.4932 93.6182 45.3838 94.5368 45.3838V44.8838C93.596 44.8838 92.8576 44.9931 92.3505 45.2365L92.5669 45.6873ZM94.5368 45.3838C95.5555 45.3838 96.2093 45.4956 96.5499 45.6814L96.7893 45.2424C96.3279 44.9907 95.5598 44.8838 94.5368 44.8838V45.3838ZM96.5618 45.6874C96.8594 45.8298 97.0485 46.1413 97.0485 46.7471H97.5485C97.5485 46.0403 97.3184 45.4951 96.7775 45.2364L96.5618 45.6874ZM97.0485 46.7471V73.5439H97.5485V46.7471H97.0485ZM97.0485 73.5439C97.0485 74.2912 96.8748 74.8377 96.5596 75.2159L96.9437 75.536C97.3577 75.0392 97.5485 74.3644 97.5485 73.5439H97.0485ZM96.5601 75.2153C96.1103 75.7517 95.4799 76.2534 94.6599 76.7169L94.9059 77.1522C95.763 76.6678 96.4451 76.1305 96.9432 75.5366L96.5601 75.2153ZM94.6615 76.716C93.852 77.1658 93.2323 77.3682 92.7868 77.3682V77.8682C93.3621 77.8682 94.0732 77.6148 94.9043 77.1531L94.6615 76.716ZM92.7868 77.3682C92.5215 77.3682 92.3629 77.2892 92.2629 77.1664C92.155 77.0338 92.0798 76.8068 92.0798 76.4424H91.5798C91.5798 76.8618 91.6641 77.2227 91.8751 77.482C92.0942 77.7512 92.4141 77.8682 92.7868 77.8682V77.3682ZM118.216 75.54L118.028 75.3754L118.024 75.38L118.216 75.54ZM116.275 76.9893L116.163 76.7656L116.161 76.7666L116.275 76.9893ZM113.869 40.6768L114.06 40.8376L114.06 40.8374L113.869 40.6768ZM115.81 39.1455L115.932 39.3641L115.935 39.362L115.81 39.1455ZM118.541 39.6104V73.5439H119.041V39.6104H118.541ZM118.541 73.5439C118.541 74.4078 118.355 75.0025 118.028 75.3754L118.405 75.7047C118.844 75.2026 119.041 74.4665 119.041 73.5439H118.541ZM118.024 75.38C117.597 75.8934 116.98 76.3571 116.163 76.7656L116.387 77.2129C117.247 76.7828 117.925 76.2804 118.409 75.7001L118.024 75.38ZM116.161 76.7666C115.354 77.1794 114.721 77.3682 114.252 77.3682V77.8682C114.839 77.8682 115.556 77.6376 116.389 77.2119L116.161 76.7666ZM114.252 77.3682C113.986 77.3682 113.828 77.2892 113.728 77.1664C113.62 77.0338 113.545 76.8068 113.545 76.4424H113.045C113.045 76.8618 113.129 77.2227 113.34 77.482C113.559 77.7512 113.879 77.8682 114.252 77.8682V77.3682ZM113.545 76.4424V42.5088H113.045V76.4424H113.545ZM113.545 42.5088C113.545 41.7848 113.725 41.2366 114.06 40.8376L113.677 40.516C113.247 41.0283 113.045 41.7015 113.045 42.5088H113.545ZM114.06 40.8374C114.51 40.3011 115.131 39.8088 115.932 39.364L115.689 38.927C114.849 39.3937 114.175 39.9222 113.677 40.5161L114.06 40.8374ZM115.935 39.362C116.743 38.895 117.371 38.6846 117.834 38.6846V38.1846C117.239 38.1846 116.518 38.4481 115.685 38.929L115.935 39.362ZM117.834 38.6846C118.099 38.6846 118.258 38.7635 118.358 38.8863C118.466 39.019 118.541 39.2459 118.541 39.6104H119.041C119.041 39.1909 118.956 38.83 118.745 38.5707C118.526 38.3016 118.206 38.1846 117.834 38.1846V38.6846Z" fill="black" fill-opacity="0.85"/>
</g>
<defs>
<filter id="filter0_d_148_194" x="76.2413" y="76.8496" width="49.7611" height="20.292" filterUnits="userSpaceOnUse" color-interpolation-filters="sRGB">
<feFlood flood-opacity="0" result="BackgroundImageFix"/>
<feColorMatrix in="SourceAlpha" type="matrix" values="0 0 0 0 0 0 0 0 0 0 0 0 0 0 0 0 0 0 127 0" result="hardAlpha"/>
<feOffset dy="2"/>
<feGaussianBlur stdDeviation="2"/>
<feComposite in2="hardAlpha" operator="out"/>
<feColorMatrix type="matrix" values="0 0 0 0 0 0 0 0 0 0.878431 0 0 0 0 1 0 0 0 0.5 0"/>
<feBlend mode="normal" in2="BackgroundImageFix" result="effect1_dropShadow_148_194"/>
<feBlend mode="normal" in="SourceGraphic" in2="effect1_dropShadow_148_194" result="shape"/>
</filter>
<filter id="filter1_d_148_194" x="0.752014" y="17.8164" width="79.5234" height="35.9883" filterUnits="userSpaceOnUse" color-interpolation-filters="sRGB">
<feFlood flood-opacity="0" result="BackgroundImageFix"/>
<feColorMatrix in="SourceAlpha" type="matrix" values="0 0 0 0 0 0 0 0 0 0 0 0 0 0 0 0 0 0 127 0" result="hardAlpha"/>
<feOffset dy="2"/>
<feGaussianBlur stdDeviation="2"/>
<feComposite in2="hardAlpha" operator="out"/>
<feColorMatrix type="matrix" values="0 0 0 0 0.490196 0 0 0 0 0.882353 0 0 0 0 0.905882 0 0 0 1 0"/>
<feBlend mode="normal" in2="BackgroundImageFix" result="effect1_dropShadow_148_194"/>
<feBlend mode="normal" in="SourceGraphic" in2="effect1_dropShadow_148_194" result="shape"/>
</filter>
<filter id="filter2_d_148_194" x="22.4509" y="36.1338" width="100.34" height="47.4844" filterUnits="userSpaceOnUse" color-interpolation-filters="sRGB">
<feFlood flood-opacity="0" result="BackgroundImageFix"/>
<feColorMatrix in="SourceAlpha" type="matrix" values="0 0 0 0 0 0 0 0 0 0 0 0 0 0 0 0 0 0 127 0" result="hardAlpha"/>
<feOffset dy="2"/>
<feGaussianBlur stdDeviation="2"/>
<feComposite in2="hardAlpha" operator="out"/>
<feColorMatrix type="matrix" values="0 0 0 0 0 0 0 0 0 0 0 0 0 0 0 0 0 0 0.48 0"/>
<feBlend mode="normal" in2="BackgroundImageFix" result="effect1_dropShadow_148_194"/>
<feBlend mode="normal" in="SourceGraphic" in2="effect1_dropShadow_148_194" result="shape"/>
</filter>
<linearGradient id="paint0_linear_148_194" x1="100.875" y1="69.6094" x2="100.875" y2="95.3446" gradientUnits="userSpaceOnUse">
<stop offset="0.387957"/>
<stop offset="1" stop-opacity="0"/>
</linearGradient>
<linearGradient id="paint1_linear_148_194" x1="41.002" y1="18.0264" x2="41.002" y2="47.6094" gradientUnits="userSpaceOnUse">
<stop offset="0.340587"/>
<stop offset="1" stop-opacity="0.04"/>
</linearGradient>
</defs>
</svg>
