<svg width="91" height="91" viewBox="0 0 91 91" fill="none" xmlns="http://www.w3.org/2000/svg">
<path d="M83.6524 76.757H66.6737C65.8927 76.757 65.2588 76.127 65.2588 75.3507V61.2882C65.2588 60.512 65.8927 59.882 66.6737 59.882H83.6524C84.4334 59.882 85.0673 60.512 85.0673 61.2882V75.3507C85.0673 76.127 84.4334 76.757 83.6524 76.757ZM68.0886 73.9445H82.2375V62.6945H68.0886V73.9445Z" fill="#7DE1E7"/>
<path d="M52.525 76.757H35.5462C34.7652 76.757 34.1313 76.127 34.1313 75.3507V61.2882C34.1313 60.512 34.7652 59.882 35.5462 59.882H52.525C53.306 59.882 53.9399 60.512 53.9399 61.2882V75.3507C53.9399 76.127 53.306 76.757 52.525 76.757ZM36.9611 73.9445H51.1101V62.6945H36.9611V73.9445Z" fill="#7DE1E7"/>
<path d="M83.6524 82.382H66.6737C65.8927 82.382 65.2588 81.752 65.2588 80.9757C65.2588 80.1995 65.8927 79.5695 66.6737 79.5695H83.6524C84.4334 79.5695 85.0673 80.1995 85.0673 80.9757C85.0673 81.752 84.4334 82.382 83.6524 82.382Z" fill="#7DE1E7"/>
<path d="M52.525 82.382H35.5462C34.7652 82.382 34.1313 81.752 34.1313 80.9757C34.1313 80.1995 34.7652 79.5695 35.5462 79.5695H52.525C53.306 79.5695 53.9399 80.1995 53.9399 80.9757C53.9399 81.752 53.306 82.382 52.525 82.382Z" fill="#7DE1E7"/>
<path d="M21.3971 82.382H4.41831C3.63729 82.382 3.00342 81.752 3.00342 80.9757C3.00342 80.1995 3.63729 79.5695 4.41831 79.5695H21.3971C22.1781 79.5695 22.812 80.1995 22.812 80.9757C22.812 81.752 22.1781 82.382 21.3971 82.382Z" fill="#7DE1E7"/>
<path d="M21.3971 76.757H4.41831C3.63729 76.757 3.00342 76.127 3.00342 75.3507V61.2882C3.00342 60.512 3.63729 59.882 4.41831 59.882H21.3971C22.1781 59.882 22.812 60.512 22.812 61.2882V75.3507C22.812 76.127 22.1781 76.757 21.3971 76.757ZM5.83321 73.9445H19.9822V62.6945H5.83321V73.9445Z" fill="#7DE1E7"/>
<path d="M75.163 34.5695H12.9076C12.1265 34.5695 11.4927 33.9395 11.4927 33.1632V10.6632C11.4927 9.88696 12.1265 9.25696 12.9076 9.25696H75.163C75.944 9.25696 76.5779 9.88696 76.5779 10.6632V33.1632C76.5779 33.9395 75.944 34.5695 75.163 34.5695ZM14.3225 31.757H73.7481V12.0695H14.3225V31.757Z" fill="#7DE1E7"/>
<path d="M44.0355 43.007C43.2545 43.007 42.6206 42.377 42.6206 41.6007V33.1632C42.6206 32.387 43.2545 31.757 44.0355 31.757C44.8165 31.757 45.4504 32.387 45.4504 33.1632V41.6007C45.4504 42.377 44.8165 43.007 44.0355 43.007Z" fill="#7DE1E7"/>
<path d="M44.0355 57.0695C43.2545 57.0695 42.6206 56.4395 42.6206 55.6632V47.2257C42.6206 46.4495 43.2545 45.8195 44.0355 45.8195C44.8165 45.8195 45.4504 46.4495 45.4504 47.2257V55.6632C45.4504 56.4395 44.8165 57.0695 44.0355 57.0695Z" fill="#7DE1E7"/>
<path d="M75.163 57.0695C74.382 57.0695 73.7481 56.4395 73.7481 55.6632V48.632H14.3225V55.6632C14.3225 56.4395 13.6886 57.0695 12.9076 57.0695C12.1265 57.0695 11.4927 56.4395 11.4927 55.6632V47.2257C11.4927 46.4495 12.1265 45.8195 12.9076 45.8195H75.163C75.944 45.8195 76.5779 46.4495 76.5779 47.2257V55.6632C76.5779 56.4395 75.944 57.0695 75.163 57.0695Z" fill="#7DE1E7"/>
<path d="M63.844 26.132H24.2269C23.4459 26.132 22.812 25.502 22.812 24.7257C22.812 23.9495 23.4459 23.3195 24.2269 23.3195H63.844C64.625 23.3195 65.2589 23.9495 65.2589 24.7257C65.2589 25.502 64.625 26.132 63.844 26.132Z" fill="#7DE1E7"/>
<path d="M63.844 20.507H24.2269C23.4459 20.507 22.812 19.877 22.812 19.1007C22.812 18.3245 23.4459 17.6945 24.2269 17.6945H63.844C64.625 17.6945 65.2589 18.3245 65.2589 19.1007C65.2589 19.877 64.625 20.507 63.844 20.507Z" fill="#7DE1E7"/>
</svg>
