<svg width="78" height="81" viewBox="0 0 98 91" fill="none" xmlns="http://www.w3.org/2000/svg">
<g filter="url(#filter0_f_104_24)">
<path d="M89.5921 76.5774H71.3773C70.5394 76.5774 69.8594 75.9474 69.8594 75.1711V61.1086C69.8594 60.3324 70.5394 59.7024 71.3773 59.7024H89.5921C90.4299 59.7024 91.11 60.3324 91.11 61.1086V75.1711C91.11 75.9474 90.4299 76.5774 89.5921 76.5774ZM72.8952 73.7649H88.0742V62.5149H72.8952V73.7649Z" fill="#7DE1E7"/>
<path d="M56.1982 76.5774H37.9834C37.1455 76.5774 36.4655 75.9474 36.4655 75.1711V61.1086C36.4655 60.3324 37.1455 59.7024 37.9834 59.7024H56.1982C57.036 59.7024 57.7161 60.3324 57.7161 61.1086V75.1711C57.7161 75.9474 57.036 76.5774 56.1982 76.5774ZM39.5013 73.7649H54.6803V62.5149H39.5013V73.7649Z" fill="#7DE1E7"/>
<path d="M89.5921 82.2024H71.3773C70.5394 82.2024 69.8594 81.5724 69.8594 80.7961C69.8594 80.0199 70.5394 79.3899 71.3773 79.3899H89.5921C90.4299 79.3899 91.11 80.0199 91.11 80.7961C91.11 81.5724 90.4299 82.2024 89.5921 82.2024Z" fill="#7DE1E7"/>
<path d="M56.1982 82.2024H37.9834C37.1455 82.2024 36.4655 81.5724 36.4655 80.7961C36.4655 80.0199 37.1455 79.3899 37.9834 79.3899H56.1982C57.036 79.3899 57.7161 80.0199 57.7161 80.7961C57.7161 81.5724 57.036 82.2024 56.1982 82.2024Z" fill="#7DE1E7"/>
<path d="M22.8044 82.2024H4.58956C3.75167 82.2024 3.07166 81.5724 3.07166 80.7961C3.07166 80.0199 3.75167 79.3899 4.58956 79.3899H22.8044C23.6422 79.3899 24.3223 80.0199 24.3223 80.7961C24.3223 81.5724 23.6422 82.2024 22.8044 82.2024Z" fill="#7DE1E7"/>
<path d="M22.8044 76.5774H4.58956C3.75167 76.5774 3.07166 75.9474 3.07166 75.1711V61.1086C3.07166 60.3324 3.75167 59.7024 4.58956 59.7024H22.8044C23.6422 59.7024 24.3223 60.3324 24.3223 61.1086V75.1711C24.3223 75.9474 23.6422 76.5774 22.8044 76.5774ZM6.10746 73.7649H21.2865V62.5149H6.10746V73.7649Z" fill="#7DE1E7"/>
<path d="M80.4846 34.3899H13.697C12.8591 34.3899 12.1791 33.7599 12.1791 32.9836V10.4836C12.1791 9.70739 12.8591 9.07739 13.697 9.07739H80.4846C81.3225 9.07739 82.0025 9.70739 82.0025 10.4836V32.9836C82.0025 33.7599 81.3225 34.3899 80.4846 34.3899ZM15.2149 31.5774H78.9667V11.8899H15.2149V31.5774Z" fill="#7DE1E7"/>
<path d="M47.0908 42.8274C46.2529 42.8274 45.5729 42.1974 45.5729 41.4211V32.9836C45.5729 32.2074 46.2529 31.5774 47.0908 31.5774C47.9287 31.5774 48.6087 32.2074 48.6087 32.9836V41.4211C48.6087 42.1974 47.9287 42.8274 47.0908 42.8274Z" fill="#7DE1E7"/>
<path d="M47.0908 56.8899C46.2529 56.8899 45.5729 56.2599 45.5729 55.4836V47.0461C45.5729 46.2699 46.2529 45.6399 47.0908 45.6399C47.9287 45.6399 48.6087 46.2699 48.6087 47.0461V55.4836C48.6087 56.2599 47.9287 56.8899 47.0908 56.8899Z" fill="#7DE1E7"/>
<path d="M80.4846 56.8899C79.6467 56.8899 78.9667 56.2599 78.9667 55.4836V48.4524H15.2149V55.4836C15.2149 56.2599 14.5349 56.8899 13.697 56.8899C12.8591 56.8899 12.1791 56.2599 12.1791 55.4836V47.0461C12.1791 46.2699 12.8591 45.6399 13.697 45.6399H80.4846C81.3225 45.6399 82.0025 46.2699 82.0025 47.0461V55.4836C82.0025 56.2599 81.3225 56.8899 80.4846 56.8899Z" fill="#7DE1E7"/>
<path d="M68.3414 25.9524H25.8402C25.0023 25.9524 24.3223 25.3224 24.3223 24.5461C24.3223 23.7699 25.0023 23.1399 25.8402 23.1399H68.3414C69.1793 23.1399 69.8593 23.7699 69.8593 24.5461C69.8593 25.3224 69.1793 25.9524 68.3414 25.9524Z" fill="#7DE1E7"/>
<path d="M68.3414 20.3274H25.8402C25.0023 20.3274 24.3223 19.6974 24.3223 18.9211C24.3223 18.1449 25.0023 17.5149 25.8402 17.5149H68.3414C69.1793 17.5149 69.8593 18.1449 69.8593 18.9211C69.8593 19.6974 69.1793 20.3274 68.3414 20.3274Z" fill="#7DE1E7"/>
</g>
<defs>
<filter id="filter0_f_104_24" x="-1.96411" y="-1.36011" width="101.146" height="94" filterUnits="userSpaceOnUse" color-interpolation-filters="sRGB">
<feFlood flood-opacity="0" result="BackgroundImageFix"/>
<feBlend mode="normal" in="SourceGraphic" in2="BackgroundImageFix" result="shape"/>
<feGaussianBlur stdDeviation="1" result="effect1_foregroundBlur_104_24"/>
</filter>
</defs>
</svg>
