<svg width="90" height="90" viewBox="0 0 120 119" fill="none" xmlns="http://www.w3.org/2000/svg">
<g filter="url(#filter0_f_34_16)">
<path d="M97.1442 59.5345C97.1442 80.0269 80.4204 96.6393 59.7905 96.6393C39.1606 96.6393 22.4368 80.0269 22.4368 59.5345C22.4368 39.0421 39.1606 22.4297 59.7905 22.4297C80.4204 22.4297 97.1442 39.0421 97.1442 59.5345Z" fill="black" fill-opacity="0.97"/>
</g>
<path d="M78.0479 68.8694C76.5403 66.1744 72.6569 62.9361 71.0538 61.5269C70.615 61.1411 70.568 60.4736 70.9674 60.0469C74.0269 56.7811 76.474 53.0286 77.3163 50.7611C77.688 49.7594 76.9187 48.7011 75.8348 48.7011H72.6863C71.6486 48.7011 71.0412 49.0711 70.7518 49.6603C68.209 54.8361 66.0278 57.0761 64.5009 58.3853C63.6461 59.1186 62.313 58.5111 62.313 57.3953C62.313 55.2453 62.313 52.4661 62.313 50.4953C62.313 49.5394 61.5261 48.7661 60.5555 48.7661L54.8038 48.7011C54.0798 48.7011 53.6662 49.5153 54.1008 50.0861L55.0505 51.4403C55.4078 51.9094 55.6008 52.4803 55.6008 53.0661L55.5958 59.1644C55.5958 60.2253 54.3013 60.7436 53.5328 60.0003C50.933 57.4853 48.6772 52.3494 47.8651 49.8936C47.6302 49.1828 46.9599 48.7028 46.1998 48.7011L43.0983 48.6936C41.9347 48.6936 41.0841 49.7894 41.4003 50.8928C44.2342 60.7736 50.0488 70.1736 60.4112 71.1928C61.4321 71.2928 62.313 70.4761 62.313 69.4653V66.2603C62.313 65.3411 63.0387 64.5511 63.9716 64.5278C64.0043 64.5269 64.037 64.5269 64.0697 64.5269C66.8105 64.5269 69.8801 68.4894 70.9539 70.3428C71.2627 70.8761 71.8398 71.2011 72.464 71.2011H76.636C77.8532 71.2011 78.6343 69.9186 78.0479 68.8694Z" fill="#7DE1E7"/>
<defs>
<filter id="filter0_f_34_16" x="0.436768" y="0.429688" width="118.708" height="118.21" filterUnits="userSpaceOnUse" color-interpolation-filters="sRGB">
<feFlood flood-opacity="0" result="BackgroundImageFix"/>
<feBlend mode="normal" in="SourceGraphic" in2="BackgroundImageFix" result="shape"/>
<feGaussianBlur stdDeviation="11" result="effect1_foregroundBlur_34_16"/>
</filter>
</defs>
</svg>
