<svg width="120" height="131" viewBox="0 0 120 131" fill="none" xmlns="http://www.w3.org/2000/svg">
<path d="M98.6951 82.0329C95.6909 90.6445 90.3666 98.055 83.4271 103.283C76.4875 108.512 68.2601 111.311 59.8339 111.311C51.4077 111.311 43.1802 108.512 36.2406 103.283C29.3011 98.055 23.9768 90.6445 20.9727 82.0329" stroke="#7DE1E7" stroke-width="3" stroke-linecap="round" stroke-linejoin="round"/>
<path d="M20.9727 49.5329C23.9768 40.9213 29.3011 33.5108 36.2406 28.2825C43.1802 23.0543 51.4077 20.2548 59.8339 20.2548C68.2601 20.2548 76.4875 23.0543 83.4271 28.2825C90.3666 33.5108 95.6909 40.9213 98.6951 49.5329" stroke="#7DE1E7" stroke-width="3" stroke-linecap="round" stroke-linejoin="round"/>
<path d="M20.9727 49.533H98.6951" stroke="#7DE1E7" stroke-width="3" stroke-linecap="round" stroke-linejoin="round"/>
<path d="M20.9727 82.0329H98.6951" stroke="#7DE1E7" stroke-width="3" stroke-linecap="round" stroke-linejoin="round"/>
<path d="M12.2974 59.283L18.2394 72.283L24.1815 59.283L30.1236 72.283L36.0657 59.283" stroke="#7DE1E7" stroke-width="3" stroke-linecap="round" stroke-linejoin="round"/>
<path d="M47.9497 59.283L53.8918 72.283L59.8339 59.283L65.776 72.283L71.718 59.283" stroke="#7DE1E7" stroke-width="3" stroke-linecap="round" stroke-linejoin="round"/>
<path d="M83.6021 59.283L89.5441 72.283L95.4862 59.283L101.428 72.283L107.37 59.283" stroke="#7DE1E7" stroke-width="3" stroke-linecap="round" stroke-linejoin="round"/>
<path d="M75.7584 49.533C73.1498 38.3026 67.6178 28.1417 59.8336 20.283C52.0926 28.0901 46.5824 38.181 43.9683 49.338" stroke="#7DE1E7" stroke-width="3" stroke-linecap="round" stroke-linejoin="round"/>
<path d="M43.9092 82.0329C46.5178 93.2633 52.0498 103.424 59.834 111.283C67.6181 103.424 73.1501 93.2633 75.7587 82.0329" stroke="#7DE1E7" stroke-width="3" stroke-linecap="round" stroke-linejoin="round"/>
</svg>
